<svg width="128" height="25" viewBox="0 0 128 25" xmlns="http://www.w3.org/2000/svg" xmlns:xlink="http://www.w3.org/1999/xlink"><title>Group 16</title><defs><path id="a" d="M27.165.009H.065v23.446h27.1V.009z"/><path id="c" d="M.06 22.67h27.46V.096H.06v22.576z"/></defs><g fill="none" fill-rule="evenodd"><g transform="translate(20.514)"><mask id="b" fill="#fff"><use xlink:href="#a"/></mask><path d="M7.808 14.844l3.026-7.998 3.318 7.998H7.808zm17.161 7.579a4.517 4.517 0 0 1-.83-.903 8.86 8.86 0 0 1-.78-1.387c-.195-.408-.418-.87-.667-1.387a69.019 69.019 0 0 1-.732-1.564c-.239-.527-.466-1.037-.683-1.532a589.44 589.44 0 0 0-.553-1.257l-4.197-10.03a67.5 67.5 0 0 0-.732-1.774 27.29 27.29 0 0 1-.7-1.806l-.26-.774c-.238.3-.455.559-.65.774-.196.215-.38.414-.553.596-.174.183-.358.366-.554.549-.195.182-.412.381-.65.596-.369.323-.673.592-.911.806a7.684 7.684 0 0 1-1.383 1c-.228.13-.504.28-.83.452.304.3.543.564.716.79.174.226.358.521.553.887l-3.285 8.61c-.564 1.484-1.172 2.742-1.822 3.774a13.156 13.156 0 0 1-2.245 2.71c-.282.257-.537.478-.765.66a3.46 3.46 0 0 1-.683.436 4.689 4.689 0 0 1-.748.274c-.271.075-.591.145-.96.21v.322h10.053v-.323c-1.02-.064-1.811-.446-2.375-1.144-.564-.7-.846-1.65-.846-2.855 0-.623.06-1.23.18-1.822.118-.591.33-1.284.633-2.08h6.572l.716 1.645c.455 1.053.791 1.95 1.008 2.693.217.742.326 1.327.326 1.757 0 1.14-.77 1.742-2.31 1.806v.323h13.143v-.323a5.075 5.075 0 0 1-1.22-.193 2.84 2.84 0 0 1-.976-.516z" fill="#000" mask="url(#b)"/></g><path d="M13.099 10.651l-3.026-1.16a24.868 24.868 0 0 1-2.375-1.017c-.715-.354-1.268-.682-1.659-.983a3.017 3.017 0 0 1-.83-1.064 3.096 3.096 0 0 1-.308-1.355c0-.946.32-1.704.96-2.274.64-.57 1.48-.854 2.52-.854 1.627 0 3.124.693 4.49 2.08 1.367 1.387 2.462 3.316 3.286 5.789h.325l-.357-8.03h-.326c-.065.279-.152.467-.26.564-.108.097-.282.145-.52.145-.348 0-.836-.075-1.465-.226l-1.04-.225a34.167 34.167 0 0 0-2.148-.388 12.53 12.53 0 0 0-1.757-.128c-1.214 0-2.337.182-3.367.548-1.03.365-1.92.86-2.667 1.483A6.88 6.88 0 0 0 .802 5.798c-.434.87-.651 1.8-.651 2.79 0 1.29.466 2.407 1.399 3.353.932.946 2.429 1.817 4.49 2.613l3.188 1.225c1.626.624 2.803 1.28 3.53 1.968.726.688 1.09 1.494 1.09 2.418 0 .99-.337 1.785-1.01 2.387-.672.602-1.56.903-2.667.903-.91 0-1.735-.15-2.473-.452-.737-.3-1.453-.774-2.147-1.419a20.954 20.954 0 0 1-2.798-3.354 34.1 34.1 0 0 1-.862-1.338 18.989 18.989 0 0 1-.601-1.064 8.276 8.276 0 0 1-.456-1.048c-.13-.366-.271-.796-.423-1.29H.086l.325 9.965h.325c.066-.301.18-.505.342-.613.163-.107.407-.161.732-.161.174 0 .358.016.553.048.195.033.542.102 1.041.21 1.367.3 2.668.532 3.904.693 1.236.162 2.267.242 3.09.242 1.15 0 2.218-.183 3.205-.548.987-.366 1.838-.865 2.554-1.5a6.965 6.965 0 0 0 1.692-2.257 6.517 6.517 0 0 0 .618-2.822c0-1.42-.434-2.612-1.301-3.58-.868-.968-2.223-1.806-4.067-2.516m55.166-9.062a2.607 2.607 0 0 1-.814.226c-.303.043-.732.075-1.285.097-.553.021-1.057.032-1.513.032H53.69c-.65 0-1.242-.006-1.773-.016-.532-.011-.96-.038-1.285-.081-.37-.043-.667-.124-.895-.242-.228-.118-.494-.328-.797-.629l-.976 7.515h.325c.152-.323.288-.602.407-.839a5.98 5.98 0 0 1 .813-1.225l.57-.678a11.849 11.849 0 0 1 2.277-2.031c.325-.215.613-.398.862-.549a5.53 5.53 0 0 1 1.562-.661c.292-.075.634-.156 1.024-.242v17.029c0 .344-.005.634-.016.87-.01.237-.027.436-.049.597a4.5 4.5 0 0 1-.097.5c-.109.387-.271.71-.488.967a2.402 2.402 0 0 1-.993.645c-.38.13-.981.215-1.805.258v.323h13.306v-.323c-.824-.043-1.437-.129-1.838-.258a1.951 1.951 0 0 1-.96-.645 2.23 2.23 0 0 1-.455-.951c-.087-.376-.141-.876-.163-1.5a8.916 8.916 0 0 1-.033-.806V2.266c.37.065.689.135.96.21a7.057 7.057 0 0 1 1.48.597c.239.129.52.3.846.516.369.236.732.51 1.09.822.358.312.7.629 1.025.951.26.28.482.527.667.742.184.215.352.44.504.677.152.237.293.49.423.758.13.269.271.586.423.952h.325L69.078.976c-.325.301-.597.505-.813.613" fill="#000"/><g transform="translate(99.917 1.849)"><mask id="d" fill="#fff"><use xlink:href="#c"/></mask><path d="M17.889.095v.323c.607.086 1.073.193 1.399.322.325.13.629.312.91.548.434.387.781.86 1.042 1.42a9.99 9.99 0 0 1 .797 2.467c.162.87.244 1.94.244 3.208v4.838L10.666.095H.061v.323c.65.021 1.16.075 1.529.16.368.087.791.248 1.268.485.63.344 1.096.71 1.4 1.096.173.237.32.462.439.677.119.215.211.463.276.742.065.28.109.618.13 1.016.022.398.033.887.033 1.467L5.103 11.9c-.021 1.784-.108 3.187-.26 4.209-.152 1.02-.423 1.875-.813 2.564a5.275 5.275 0 0 1-1.302 1.564 4.656 4.656 0 0 1-1.789.887 35.4 35.4 0 0 1-.407.064 5.303 5.303 0 0 0-.471.097v.322h10.313v-.322c-.673-.065-1.188-.156-1.546-.274a2.956 2.956 0 0 1-.992-.565 4.571 4.571 0 0 1-1.073-1.225c-.434-.71-.749-1.591-.944-2.645-.195-1.053-.293-2.419-.293-4.096V3.256L22.704 22.67V9.77c0-1.613.086-2.946.26-4 .174-1.053.477-2 .91-2.838.174-.322.348-.618.521-.887.174-.269.37-.5.586-.693a2.55 2.55 0 0 1 .992-.629c.358-.118.873-.22 1.546-.306V.095h-9.63z" fill="#000" mask="url(#d)"/></g><path d="M94.028 17.811c-.737 1.075-1.561 2-2.472 2.774a11.436 11.436 0 0 1-2.912 1.822c-1.03.44-2.055.66-3.074.66-.76 0-1.269-.193-1.53-.58-.26-.387-.39-1.14-.39-2.257v-7.611c.933.043 1.67.161 2.213.355.542.193 1.073.515 1.594.967 1.02.882 1.702 2.053 2.05 3.515h.325V7.523h-.326c-.086.56-.179.978-.276 1.258-.098.28-.266.602-.504.967-.24.344-.575.7-1.009 1.065a6.168 6.168 0 0 1-1.757.983c-.629.226-1.399.382-2.31.468V2.331h.911c1.605 0 3.02.28 4.246.838 1.225.56 2.358 1.452 3.4 2.677.26.301.488.575.683.822.195.248.374.5.537.758.162.258.314.543.455.855.141.312.298.672.472 1.08h.325l-1.301-7.417H74.216v.322c.737.065 1.274.156 1.61.274a1.7 1.7 0 0 1 .83.63c.195.279.341.601.439.967.097.365.146.87.146 1.516v13.61c0 .343-.01.634-.032.87-.022.237-.044.44-.065.613l-.065.516a2.407 2.407 0 0 1-.423.967 2.005 2.005 0 0 1-.862.645c-.337.13-.863.215-1.578.258v.323h20.43l1.497-9.16h-.325a15.36 15.36 0 0 1-1.79 3.516" fill="#000"/></g></svg>