<svg xmlns="http://www.w3.org/2000/svg" xmlns:xlink="http://www.w3.org/1999/xlink" viewBox="0 0 170.1 170.1"><style>.st0{fill-rule:evenodd;clip-rule:evenodd}.st1{visibility:hidden}</style><g id="5" class="st1"><g id="XMLID_7_"><path id="XMLID_120_" class="st0" d="M117.3 52.4V63c0 .8-.1 1.6-.4 2.4-1.3 3.5-5.2 5.2-8.7 3.9L93 63.5c-5.3-2-11.2.6-13.2 5.9-2 5.3.6 11.2 5.9 13.2l15.2 5.8c1.7.6 3 1.9 3.7 3.5.7 1.6.8 3.5.1 5.1-1.3 3.5-5.2 5.2-8.7 3.9l-15-5.7c-5.3-2-11.2.6-13.2 5.9-2 5.3.6 11.2 5.9 13.2l7.7 2.9H52.5V52.4h64.8z"/><path id="XMLID_129_" class="st0" d="M110.6 73.3c2.5 0 4.9-.9 6.7-2.5v46.5h-25c-.7 0-1.5-.2-2.2-.4L75 111c-1.7-.6-3-1.9-3.7-3.5-.7-1.6-.8-3.5-.1-5.1 1.3-3.5 5.2-5.2 8.7-3.9l15.2 5.8c1.2.5 2.4.7 3.6.7 4.1 0 8-2.5 9.6-6.6 2-5.3-.6-11.2-5.9-13.2L87 79.3c-1.7-.6-3-1.9-3.7-3.5-.7-1.6-.8-3.5-.1-5.1 1.3-3.5 5.2-5.2 8.7-3.9l15.2 5.8c1.1.4 2.3.7 3.5.7z"/></g><animate xlink:href="#5" id="a5" attributeType="CSS" attributeName="visibility" from="visible" to="hidden" dur="0.7s" begin="a4.end - 0.35s" repeatCount="1" fill="freeze"/></g><g id="4" class="st1"><path id="XMLID_15_" class="st0" d="M52.5 52.4v64.8h64.8V52.4H52.5zm28.4 8.1L95.4 66 84.2 95.6l-14.5-5.5 11.2-29.6zm17.5 49.4l-14.5-5.5 11.3-29.5 14.5 5.5-11.3 29.5z"/><animate xlink:href="#4" id="a4" attributeType="CSS" attributeName="visibility" from="visible" to="hidden" dur="0.7s" begin="a3.end - 0.35s" repeatCount="1" fill="freeze"/></g><g id="3" class="st1"><path id="XMLID_18_" class="st0" d="M99.8 73.1c0 1.2-1 2.2-2.2 2.2-1.2 0-2.2-1-2.2-2.2 0-1.2 1-2.2 2.2-2.2 1.2 0 2.2 1 2.2 2.2z"/><path id="XMLID_21_" class="st0" d="M52.5 52.4v64.8h64.8V52.4H52.5zm49.8 39.7c-7.6 12.4-19 19.2-25.6 15.2-6.5-4-5.7-17.3 1.9-29.7 7.6-12.4 19-19.2 25.6-15.2 6.5 3.9 5.7 17.3-1.9 29.7z"/><path id="XMLID_9_" class="st0" d="M99.8 73.1c0 1.2-1 2.2-2.2 2.2-1.2 0-2.2-1-2.2-2.2 0-1.2 1-2.2 2.2-2.2 1.2 0 2.2 1 2.2 2.2z"/><animate xlink:href="#3" id="a3" attributeType="CSS" attributeName="visibility" from="visible" to="hidden" dur="0.7s" begin="a2.end - 0.35s" repeatCount="1" fill="freeze"/></g><g id="2" class="st1"><path id="XMLID_27_" class="st0" d="M52.5 52.4v64.8h64.8V52.4H52.5zm26.6 18.8l-6.9 18-5.6-12.5 12.5-5.5zm.4 34.6l-5.8-13.1 8.8-22.9 13.1-5.9 12.9 28.9-29 13z"/><animate xlink:href="#2" id="a2" attributeType="CSS" attributeName="visibility" from="visible" to="hidden" dur="0.7s" begin="a1.end - 0.35s" repeatCount="1" fill="freeze"/></g><g id="1" class="st1"><path id="XMLID_2_" class="st0" d="M52.5 52.4h64.8v64.8H52.5z"/><animate xlink:href="#1" id="a1" attributeType="CSS" attributeName="visibility" from="visible" to="hidden" dur="0.7s" begin="0;a5.end - 0.35s" repeatCount="1" fill="freeze"/></g></svg>