<svg width="129" height="68" viewBox="0 0 129 68" xmlns="http://www.w3.org/2000/svg" xmlns:xlink="http://www.w3.org/1999/xlink"><title>Group</title><desc>Created using Figma</desc><use xlink:href="#a" transform="translate(0 .99)"/><use xlink:href="#b" transform="translate(18.7)"/><defs><path id="a" fill-rule="evenodd" d="M67.014 0v10.957c0 .848-.15 1.665-.453 2.482-1.363 3.572-5.388 5.388-8.96 4.026l-15.68-5.993c-5.447-2.089-11.562.635-13.65 6.084-2.089 5.448.666 11.562 6.114 13.65v.031l15.68 5.963a6.97 6.97 0 0 1 3.873 3.662 6.845 6.845 0 0 1 .152 5.297c-1.362 3.572-5.388 5.388-8.96 4.026l-15.679-5.963c-5.448-2.058-11.562.666-13.65 6.115-2.09 5.448.665 11.562 6.113 13.65l7.961 3.027H0V0h67.014z"/><path id="b" fill-rule="evenodd" d="M41.353 22.537c2.573 0 6.47-.856 8.44-4.798 1.971-3.942 1.45-6.922 1.478-10.84.025-3.471 0-5.913 0-5.913L109.416 0v68h-86.95c-.757-.03-1.544-.151-2.3-.454l-15.68-5.993A6.97 6.97 0 0 1 .612 57.89a6.917 6.917 0 0 1-.151-5.327c1.362-3.572 5.388-5.388 8.96-4.026L25.098 54.5c1.241.484 2.513.696 3.754.696 4.267 0 8.293-2.603 9.898-6.81 2.088-5.448-.666-11.563-6.115-13.651l-15.679-5.993a6.97 6.97 0 0 1-3.874-3.663 6.916 6.916 0 0 1-.152-5.327c1.363-3.572 5.388-5.388 8.96-4.026v.03L37.6 21.84c1.24.454 2.511.697 3.752.697z"/></defs></svg>