<svg width="105" height="99" viewBox="0 0 105 99" xmlns="http://www.w3.org/2000/svg"><title>Pin</title><defs><filter x="-46.6%" y="-54.2%" width="193.2%" height="208.4%" filterUnits="objectBoundingBox" id="a"><feGaussianBlur stdDeviation="9.216" in="SourceGraphic"/></filter></defs><g fill="none" fill-rule="evenodd"><path fill="#949494" opacity=".624" filter="url(#a)" d="M34.643 81.002L24.357 70.375H0V30h59.309v39.286H38.068z" transform="translate(23)"/><path fill="#000" d="M26 0h60v60H65.07L56 79.537 47.298 60H26z"/><path d="M70.861 35.11c0-2.247-.68-4.137-2.043-5.67-1.362-1.532-3.49-2.86-6.385-3.984l-4.75-1.839a38.872 38.872 0 0 1-3.73-1.609c-1.124-.562-1.992-1.081-2.605-1.558a4.773 4.773 0 0 1-1.303-1.685 4.94 4.94 0 0 1-.485-2.146c0-1.498.502-2.699 1.507-3.601 1.005-.903 2.324-1.354 3.959-1.354 2.554 0 4.904 1.098 7.05 3.295 2.145 2.196 3.865 5.253 5.159 9.17h.51l-.561-12.72h-.511c-.102.442-.239.74-.409.894-.17.153-.443.23-.817.23-.545 0-1.311-.12-2.299-.358l-1.635-.358a53.224 53.224 0 0 0-3.371-.613A19.51 19.51 0 0 0 55.384 11c-1.908 0-3.67.29-5.287.868-1.618.58-3.014 1.363-4.19 2.35a10.884 10.884 0 0 0-2.783 3.55 9.846 9.846 0 0 0-1.022 4.419c0 2.043.732 3.814 2.197 5.313 1.464 1.498 3.814 2.877 7.05 4.137l5.005 1.941c2.554.988 4.402 2.027 5.543 3.116 1.14 1.09 1.71 2.367 1.71 3.832 0 1.566-.527 2.826-1.583 3.78-1.055.953-2.452 1.43-4.189 1.43-1.43 0-2.724-.238-3.882-.715s-2.281-1.226-3.371-2.248a33.128 33.128 0 0 1-4.393-5.312 54.056 54.056 0 0 1-1.354-2.12 30.356 30.356 0 0 1-.945-1.686 13.175 13.175 0 0 1-.715-1.66 49.759 49.759 0 0 1-.664-2.043H42l.51 15.784h.512c.102-.477.28-.8.536-.97.255-.17.639-.256 1.15-.256a5.2 5.2 0 0 1 .868.077c.306.05.851.161 1.634.332a71.06 71.06 0 0 0 6.13 1.098c1.941.255 3.559.383 4.853.383 1.805 0 3.482-.29 5.032-.868 1.55-.58 2.886-1.371 4.01-2.376a11.026 11.026 0 0 0 2.656-3.575c.647-1.38.97-2.87.97-4.47z" fill="#FFF"/></g></svg>