<svg width="39" height="28" viewBox="0 0 39 28" xmlns="http://www.w3.org/2000/svg"><title>Group 2</title><path d="M11.388 15.138c-3.313-.88-5.747-3.873-5.747-7.438 0-4.258 3.472-7.7 7.765-7.7 4.294 0 7.765 3.442 7.765 7.7 0 3.55-2.413 6.533-5.704 7.427 6.559.693 10.34 4.984 11.345 12.873H0c1.007-7.846 4.804-12.134 11.388-12.862zm2.066 3.123c-4.211.003-7.171 2.096-8.879 6.278h17.654c-1.639-4.189-4.563-6.281-8.775-6.278zm-.048-14.737c-2.335 0-4.21 1.86-4.21 4.176s1.875 4.176 4.21 4.176c2.336 0 4.211-1.86 4.211-4.176s-1.875-4.176-4.21-4.176zm17.744 8.722V7.304h2.903v4.942H39v2.9h-4.947v4.941H31.15v-4.941h-4.947v-2.9h4.947z"/></svg>