<svg width="61" height="46" viewBox="0 0 61 46" xmlns="http://www.w3.org/2000/svg"><title>Group 17</title><g fill="none" fill-rule="evenodd"><path d="M28.419 28.384c-1.64-.69-4.415-2.074-6.639-4.296-2.224-2.221-3.608-5-4.296-6.638l2.147-2.147L9.426 0 2.648 6.778c-5.62 5.623-2.018 18.027 8.2 28.245 6.721 6.721 14.783 10.896 21.04 10.896 2.953 0 5.443-.93 7.21-2.696l6.773-6.777L30.566 26.24l-2.147 2.144zm9.365 8.86l-2.332 2.335c-.786.786-1.984 1.183-3.562 1.183-4.865 0-11.692-3.685-17.395-9.386-8.59-8.59-11.216-17.939-8.203-20.952l2.337-2.337 4.374 6.561-1.418 1.423.444 1.474c.072.237 1.809 5.886 6.112 10.187 4.304 4.301 9.95 6.041 10.19 6.11l1.477.446 1.417-1.417 6.56 4.373zM48 30.695c-7.005 0-12.683-5.46-12.683-12.195S40.995 6.305 48 6.305s12.683 5.46 12.683 12.195S55.005 30.695 48 30.695z" fill="#17B3ED" fill-rule="nonzero"/><path d="M48 26.427c4.553 0 8.244-3.55 8.244-7.927 0-4.378-3.691-7.927-8.244-7.927s-8.244 3.55-8.244 7.927c0 4.378 3.691 7.927 8.244 7.927z" fill="#2B3135"/><path fill="#FFF" d="M47.015 23.052l-4.405-4.34 2.253-2.22 2.152 2.12 4.757-4.685 2.252 2.22z"/></g></svg>