<svg width="90" height="74" viewBox="0 0 90 74" xmlns="http://www.w3.org/2000/svg"><title>Group 16</title><g fill="none" fill-rule="evenodd"><path d="M0 0v60h53.86l3.51-18.548L76 37.625V0H0zm68 8v4.272L38 37 8 12.272V8h60zM8 52V23l30 25.131L68 23v14.193l-10.63 4.26L54.181 52H8z" fill="#DEE8EB" fill-rule="nonzero"/><path d="M69.5 73.5c-11.046 0-20-8.954-20-20s8.954-20 20-20 20 8.954 20 20-8.954 20-20 20zm0-7c7.18 0 13-5.82 13-13s-5.82-13-13-13-13 5.82-13 13 5.82 13 13 13z" fill="#DEE8EB" fill-rule="nonzero"/><path fill="#78C783" d="M67.947 60.965L61 53.846l3.553-3.64 3.394 3.479 7.5-7.685L79 49.64z"/></g></svg>