<svg width="60" height="63" viewBox="0 0 60 63" xmlns="http://www.w3.org/2000/svg"><title>noun_900032_cc</title><path d="M59.257 21.043l-1.038-5.148-5.451.193c-2.142 0-12.849-.386-17.651-8.044L29.926 0l-5.257 8.108c-4.672 7.594-15.444 7.915-17.52 7.915l-5.517-.193-1.038 5.15c-.065 1.094-1.622 10.038.584 20.592C2.541 48.135 5.591 56.114 12.08 63v-2.831h3.44C9.55 53.926 6.758 46.655 5.525 40.67c-2.077-9.717-.65-17.89-.454-18.79l.26-1.48 1.816.064c2.531 0 15.38-.45 21.35-9.975l1.492-2.316 1.428 2.252c5.97 9.588 18.819 10.039 21.415 10.039l1.752-.065.26 1.48c.194.901 1.622 8.945-.455 18.791-1.233 5.92-4.023 13.192-9.993 19.499h3.634v2.702c6.424-6.885 9.41-14.865 10.772-21.364 2.271-10.683.649-19.499.454-20.464z"/><path d="M47.529 27.925l-.457-2.26-2.434.078c-1.521 0-9.433-.312-12.932-6.236L29.5 16l-2.206 3.585c-3.5 5.846-11.41 6.158-12.932 6.158l-2.434-.078-.457 2.26c-.152.624-1.14 6.548.305 13.485 1.369 6.78 5.4 15.978 16.659 21.044L29.5 63l1.065-.468c11.258-5.066 15.29-14.185 16.66-21.044 1.445-7.171.456-12.94.304-13.563zM28.13 48.658L21.437 41.8l3.423-3.507 3.27 3.351 7.227-7.404 3.424 3.507-10.65 10.912z"/></svg>