<svg width="58" height="38" viewBox="0 0 58 38" xmlns="http://www.w3.org/2000/svg"><title>Group 6</title><g transform="translate(9.008 30.99)"><ellipse cx="37.426" cy="3.49" rx="3.412" ry="3.325"/><ellipse cx="3.58" cy="3.49" rx="3.477" ry="3.389"/></g><path d="M34.204 22.24V5.947L14.228 5.78 7.03 18.741 1.333 21.2C.518 21.51 0 22.227 0 23.021V34.25h7.444c0-.077-.013-.141-.013-.218 0-2.423 2.279-4.384 5.101-4.384s5.101 1.961 5.101 4.384c0 .077-.013.141-.013.218h23.601c0-.077-.013-.141-.013-.218 0-2.423 2.28-4.384 5.101-4.384 2.81 0 5.101 1.961 5.101 4.384 0 .077-.013.141-.013.218H58V22.252H34.204v-.013z"/><path d="M36.13.7h7.814c-.091 4.604-.091 6.905 0 6.905.022 0 .987-.815 2.895-2.444l2.849 2.444V.7h6.874v19.776H36.13V.7z"/></svg>