<svg width="68" height="60" viewBox="0 0 68 60" xmlns="http://www.w3.org/2000/svg"><title>noun_1267990_cc</title><g fill-rule="evenodd"><path d="M28.44 15.772c-3.02.606-6.04 1.82-9.06 2.426-1.812.607-7.851-1.213-1.51-3.033 3.624.303 6.946.303 10.57.607zm8.456 1.516c.905-.91-.302-.606-1.812-.303-2.416 1.517-4.53 3.033-7.55 4.246-3.322 1.517-6.946-.303-3.624-2.123 1.51-.91 3.624-2.123 5.436-3.336 4.228 0 10.267 0 14.193.91-3.02 2.426-6.945 5.762-8.757 7.582-2.416 2.123-4.53 2.123-4.228 0 0-1.516 4.832-5.762 6.342-6.976z"/><path d="M51.995 34.273c-.302-2.73-1.51-5.156-1.208-7.886.302-2.426 7.851-5.459 8.455-8.795 1.208-6.976 3.624-5.763 8.758-8.19C65.584 6.672 62.866 2.73 60.45 0 46.257 10.312 26.326 10.616 12.133 10.312c-.302 1.82.906 3.033 3.322 3.337 6.945.91 14.797 1.213 21.742 1.213 9.966.303 11.778 3.336 9.664 8.492-2.114 5.157-.604 10.01 5.134 10.92z"/><path d="M.677 40.16l40.164-14.558 6.986 20.018L7.663 59.875.677 40.161zm20.888-2.426l-.302-1.213 1.51-.607.302 1.214c1.812-.304 3.322 0 4.53 1.516l-2.416 1.517c-.302-.607-1.208-.607-1.812-.304-.906.304-.906.607-.906.91.302.91 3.322 0 4.228.304 1.208 0 2.416.91 2.718 2.123.906 2.123-.604 3.64-2.416 4.853l.302 1.213-1.51.606-.302-1.516c-2.114.606-3.624 0-4.832-1.82l2.718-1.516c.302.91 1.208.91 2.114.606.906-.303 1.208-.606.906-.91-.302-1.213-3.624.304-5.436-.606-2.416-1.517-1.812-4.853.604-6.37z"/></g></svg>