<?xml version="1.0" encoding="UTF-8"?>
<svg width="40px" height="20px" viewBox="0 0 40 20" version="1.1" xmlns="http://www.w3.org/2000/svg" xmlns:xlink="http://www.w3.org/1999/xlink">
    <!-- Generator: Sketch 47 (45396) - http://www.bohemiancoding.com/sketch -->
    <title>Group 17</title>
    <desc>Created with Sketch.</desc>
    <defs></defs>
    <g id="Page-1" stroke="none" stroke-width="1" fill="none" fill-rule="evenodd">
        <g id="Group-7" transform="translate(-199.000000, -352.000000)" fill="#FFFFFF">
            <g id="Group-17" transform="translate(199.000000, 352.000000)">
                <g id="noun_953736_cc-copy" transform="translate(20.000000, 0.000000)" fill-rule="nonzero">
                    <path d="M16.8542821,9.36363636 L3.1457179,9.36363636 L4.91037564,17.6363636 L15.0896244,17.6363636 L16.8542821,9.36363636 Z M2.77303359,20 L0,7 L20,7 L17.2269664,20 L2.77303359,20 Z" id="Shape"></path>
                    <polygon id="Shape" points="8.59997559 0 8.59997559 11 11.5999756 11 11.5999756 0"></polygon>
                </g>
                <polygon id="+" points="4.84 8.84 4.84 4 7.084 4 7.084 8.84 11.924 8.84 11.924 11.084 7.084 11.084 7.084 15.924 4.84 15.924 4.84 11.084 0 11.084 0 8.84"></polygon>
            </g>
        </g>
    </g>
</svg>