<svg width="37px" height="24px" viewBox="0 0 37 24" version="1.1" xmlns="http://www.w3.org/2000/svg" xmlns:xlink="http://www.w3.org/1999/xlink">
    <g id="Page-1" stroke="none" stroke-width="1" fill="none" fill-rule="evenodd">
        <g id="Saten_Product_Modal" transform="translate(-909.000000, -248.000000)" fill-rule="nonzero" fill="#E5E5E5">
            <g id="Group-6" transform="translate(909.000000, 248.000000)">
                <g id="noun_970513_cc">
                    <ellipse id="Oval" cx="29.6213564" cy="21.6130841" rx="2.17648629" ry="2.0844582"></ellipse>
                    <ellipse id="Oval" cx="8.03028139" cy="21.6130841" rx="2.21786436" ry="2.12408669"></ellipse>
                    <path d="M2.5,15.3053218 L2.5,18.9689355 L3.30989628,18.9683967 C4.29486846,17.2682257 5.85645066,16.4181402 7.99464286,16.4181402 C10.1328351,16.4181402 11.7207706,17.2682257 12.7584494,18.9683967 L24.806332,18.9689355 C25.9320502,17.2684053 27.5106687,16.4181402 29.5421875,16.4181402 C31.5737063,16.4181402 33.0974062,17.2684053 34.1132873,18.9689355 L34.5,18.9689355 L34.5,14.2468763 L19.3200893,14.2468763 L19.3200893,6.20777895 L10.5283528,6.13571778 L6.24309072,13.7163065 L2.5,15.3053218 Z M21.6770031,3.72818613 L21.6770031,11.7468763 L37,11.7468763 L37,21.4689355 L32.7879464,21.4689355 C32.7879464,21.4207269 32.7962054,21.3805531 32.7962054,21.3323446 C32.7962054,19.813775 31.334375,18.5844568 29.5421875,18.5844568 C27.7417411,18.5844568 26.2881696,19.813775 26.2881696,21.3323446 C26.2881696,21.3805531 26.2964286,21.4207269 26.2964286,21.4689355 L11.2404018,21.4689355 C11.2404018,21.4207269 11.2486607,21.3805531 11.2486607,21.3323446 C11.2486607,19.813775 9.79508929,18.5844568 7.99464286,18.5844568 C6.19419643,18.5844568 4.740625,19.813775 4.740625,21.3323446 C4.740625,21.3805531 4.74888393,21.4207269 4.74888393,21.4689355 L0,21.4689355 L0,14.430486 C0,13.9323309 0.330357143,13.4823844 0.850669643,13.2895501 L4.48459821,11.7468763 L9.0765625,3.62373426 L21.6770031,3.72818613 Z" id="Shape"></path>
                    <path d="M21.6999876,11.9000127 L34.5999887,11.9000127 L34.5999887,2.70001245 L21.6999876,2.70001245 L21.6999876,11.9000127 Z M19.2999878,0.300012589 L36.9999886,0.300012589 L36.9999886,14.3000126 L19.2999878,14.3000126 L19.2999878,0.300012589 Z" id="Rectangle-47"></path>
                </g>
            </g>
        </g>
    </g>
</svg>