<svg width="26" height="24" viewBox="0 0 26 24" version="1.1" xmlns="http://www.w3.org/2000/svg" xmlns:xlink="http://www.w3.org/1999/xlink">
<title>Group 22</title>
<desc>Created using Figma</desc>
<g id="Canvas" transform="translate(19002 -9181)">
<g id="Group 22">
<g id="Rectangle 24.6">
<use xlink:href="#path0_fill" transform="matrix(-4.37114e-08 1 -1 -4.37114e-08 -18986 9184)" fill="#17B3ED"/>
</g>
<g id="Rectangle 24.9">
<use xlink:href="#path1_fill" transform="matrix(-4.37114e-08 1 -1 -4.37114e-08 -18976 9184)" fill="#17B3ED"/>
</g>
<g id="Rectangle 24.7">
<use xlink:href="#path2_fill" transform="matrix(-4.37114e-08 1 -1 -4.37114e-08 -18997 9192)" fill="#17B3ED"/>
</g>
<g id="Rectangle 24.10">
<use xlink:href="#path3_fill" transform="matrix(-4.37114e-08 1 -1 -4.37114e-08 -18976 9192)" fill="#17B3ED"/>
</g>
<g id="Rectangle 24.8">
<use xlink:href="#path4_fill" transform="matrix(-4.37114e-08 1 -1 -4.37114e-08 -18988 9200)" fill="#17B3ED"/>
</g>
<g id="Rectangle 24.11">
<use xlink:href="#path5_fill" transform="matrix(-4.37114e-08 1 -1 -4.37114e-08 -18976 9200)" fill="#17B3ED"/>
</g>
<g id="Ellipse (Stroke)">
<use xlink:href="#path6_fill" transform="translate(-18988 9181)" fill="#17B3ED"/>
</g>
<g id="Ellipse (Stroke)">
<use xlink:href="#path6_fill" transform="translate(-18998 9189)" fill="#17B3ED"/>
</g>
<g id="Ellipse (Stroke)">
<use xlink:href="#path6_fill" transform="translate(-18990 9197)" fill="#17B3ED"/>
</g>
</g>
</g>
<defs>
<path id="path0_fill" d="M 0 0L 3 0L 3 16L 0 16L 0 0Z"/>
<path id="path1_fill" d="M 0 0L 3 0L 3 6L 0 6L 0 0Z"/>
<path id="path2_fill" d="M 0 0L 3 0L 3 5L 0 5L 0 0Z"/>
<path id="path3_fill" d="M 0 0L 3 0L 3 15L 0 15L 0 0Z"/>
<path id="path4_fill" d="M 0 0L 3 0L 3 14L 0 14L 0 0Z"/>
<path id="path5_fill" d="M 0 0L 3 0L 3 7L 0 7L 0 0Z"/>
<path id="path6_fill" fill-rule="evenodd" d="M 4 5C 4.55228 5 5 4.55228 5 4C 5 3.44772 4.55228 3 4 3C 3.44772 3 3 3.44772 3 4C 3 4.55228 3.44772 5 4 5ZM 4 8C 6.20914 8 8 6.20914 8 4C 8 1.79086 6.20914 0 4 0C 1.79086 0 0 1.79086 0 4C 0 6.20914 1.79086 8 4 8Z"/>
</defs>
</svg>
