<?xml version="1.0" encoding="UTF-8"?>
<svg width="19px" height="20px" viewBox="0 0 19 20" version="1.1" xmlns="http://www.w3.org/2000/svg" xmlns:xlink="http://www.w3.org/1999/xlink">
    <!-- Generator: Sketch 47 (45396) - http://www.bohemiancoding.com/sketch -->
    <title>Combined Shape</title>
    <desc>Created with Sketch.</desc>
    <defs></defs>
    <g id="Page-1" stroke="none" stroke-width="1" fill="none" fill-rule="evenodd">
        <g id="Saten_Busket_3" transform="translate(-1064.000000, -18.000000)" fill-rule="nonzero" fill="#000000">
            <path d="M1072.04521,28.8063132 C1069.71033,28.1698444 1067.99752,26.0376629 1067.99752,23.5 C1067.99752,20.4588235 1070.45745,18 1073.5,18 C1076.54255,18 1079.00248,20.4588235 1079.00248,23.5 C1079.00248,26.0376629 1077.28967,28.1698444 1074.95479,28.8063132 C1079.73031,29.3059016 1082.41205,32.3704639 1083,38 L1064,38 C1064.58795,32.3704639 1067.26969,29.3059016 1072.04521,28.8063132 Z M1073.53393,30.7333333 C1069.84717,30.7333333 1067.60531,32.4888889 1066.80835,36 L1080.0883,36 C1079.40548,32.4888889 1077.22069,30.7333333 1073.53393,30.7333333 Z M1073.5,19.9411765 C1071.52558,19.9411765 1069.93957,21.5264706 1069.93957,23.5 C1069.93957,25.4735294 1071.52558,27.0588235 1073.5,27.0588235 C1075.47442,27.0588235 1077.06043,25.4735294 1077.06043,23.5 C1077.06043,21.5264706 1075.47442,19.9411765 1073.5,19.9411765 Z" id="Combined-Shape"></path>
        </g>
    </g>
</svg>