<?xml version="1.0" encoding="UTF-8"?>
<svg width="1400px" height="557px" viewBox="0 0 1400 557" version="1.1" xmlns="http://www.w3.org/2000/svg" xmlns:xlink="http://www.w3.org/1999/xlink">
    <g id="Page-1" stroke="none" stroke-width="1" fill="none" fill-rule="evenodd">
        <g id="Saten_Home" transform="translate(0.000000, -119.000000)">
            <g id="Image" transform="translate(-1.000000, 119.000000)">
                <g id="Hower" transform="translate(1.000000, 0.000000)">
                    <path data-item="1" d="M452.475769,411.823821 C447.381223,409.949828 443.767407,407.129838 441.63432,403.363849 C439.501233,399.597861 439.219392,396.414044 440.788797,393.812398 C438.406104,391.93208 437.700711,389.582473 438.672618,386.763577 C440.130479,382.535233 444.391666,377.130018 456.87818,364.467612 C469.364694,351.805206 477.767595,346.462496 481.152605,345.835196 C483.409279,345.416996 485.91714,345.17806 488.676189,345.118387 C489.644144,343.643844 490.859303,342.870566 492.321664,342.798555 C494.515207,342.690538 511.089886,342.020229 528.294755,342.020229 C539.764667,342.020229 555.789071,342.454996 576.367967,343.324528 C582.576191,343.324528 586.073934,344.161417 586.861195,345.835196 C588.042086,348.345863 587.664168,351.293951 584.771072,359.74334 C581.877975,368.192729 578.08494,376.193294 576.367967,379.829252 C574.650993,383.465211 567.634129,392.540282 567.474658,393.812398 C567.368344,394.660475 566.81154,405.808391 565.804246,427.256146 C564.771544,427.975462 563.86862,429.331598 563.095473,431.324555 C562.322327,433.317512 555.432856,445.983703 542.427061,469.323126 C539.646152,474.220659 535.464414,477.711398 529.881847,479.795342 C521.507996,482.921258 512.582934,485.257052 499.305635,484.626833 C486.028337,483.996614 482.306869,480.768519 480.627501,478.857791 C478.948133,476.947063 478.512782,474.428089 478.512782,471.358615 C478.512782,469.3123 478.417415,457.78095 478.226683,436.764564 C472.959249,435.405162 467.834214,432.703554 462.851577,428.659739 C457.868941,424.615924 454.410338,419.003951 452.475769,411.823821 Z" id="Unitaz" fill="#17B3ED" opacity="0.652909873"></path>
                    <path data-item="2" d="M899.824678,460.796287 L898.253807,0.990584161 L53.9137002,0.990584161 L57.1949149,474.407438 L478.471436,465.706576 L478.203083,436.81082 C472.699608,435.298364 467.465247,432.449998 462.5,428.26572 C457.534752,424.081442 454.21601,418.644297 452.543774,411.954284 C451.104293,411.182521 449.498866,410.376329 447.727492,409.535707 C444.942885,408.214248 440.18456,403.138843 439.843728,398.658381 C439.70046,396.775027 439.982122,395.170735 440.688715,393.845504 C437.604116,391.324289 437.420126,387.989294 440.136746,383.840519 C446.778417,373.697474 459.37066,362.105946 462.5,358.954979 C465.629339,355.804011 476.84847,346.123381 481.772059,345.67255 C485.054452,345.371997 487.326809,345.227749 488.58913,345.239808 C489.386802,343.629313 490.983814,342.768049 493.380166,342.656015 C495.441376,342.559649 512.611124,341.979805 529.275046,341.989382 C541.67119,341.996505 554.125186,342.380606 559.857427,342.656015 C563.979849,342.854079 577.854184,343.220607 581.24205,343.441912 C584.629917,343.663217 585.907721,344.703086 586.625401,345.428708 C589.180917,348.012501 585.740131,357.292575 582.69548,365.673613 C581.513562,368.92709 579.594203,374.178845 576.362615,379.91422 C574.817161,382.657068 571.875811,387.157479 567.538564,393.415452 L565.882866,427.182004 C565.420865,427.344783 564.094043,429.618304 561.902401,434.002568 C559.71076,438.386831 554.111245,448.603827 545.103856,464.653558 L612.797005,464.653558 L609.442424,419.364303 L640.594991,403.671676 L681.91872,413.023586 L677.790467,463.898502 L739.219914,463.898502 C737.253249,457.351907 735.911303,452.876596 735.194076,450.472571 C734.147836,446.96575 733.120405,444.42115 732.791891,442.429503 C732.125567,438.389861 731.515804,431.617613 730.962603,422.112759 C729.543093,419.153116 728.545193,416.723691 727.968901,414.824486 C727.104464,411.975677 727.319267,409.976478 726.559065,407.926468 C726.260583,407.121563 725.777109,406.71272 725.226706,406.260803 C723.274484,404.657903 719.897179,401.627693 717.206363,396.128728 C712.838537,387.202615 711.997759,378.61561 711.263341,370.663053 C710.956114,367.336281 710.795938,363.246097 711.012928,359.866313 C711.314648,355.166813 712.283916,351.33945 712.526009,350.374228 C712.942208,348.71484 712.439652,346.019258 716.704023,345.428708 C720.968395,344.838158 726.932004,345.30656 742.304076,344.838158 C745.003073,344.755917 749.42012,344.515993 755.555219,344.118387 L755.555219,307.272263 C756.299602,306.467016 758.380856,306.064392 761.798983,306.064392 C765.217109,306.064392 767.294599,306.467016 768.031452,307.272263 L768.031452,322.864876 L768.390969,344.118387 C784.377853,344.475427 793.75826,344.715351 796.532188,344.838158 C800.693082,345.022368 804.616921,344.713768 806.672399,347.347709 C807.134839,347.940291 807.433004,348.667156 808.025344,349.360658 C810.065871,351.749673 812.778554,354.389163 813.178051,355.407942 C813.320417,355.770998 813.453477,356.701133 814.235268,357.795538 C816.284117,360.66366 820.272752,365.230564 821.754626,367.94051 C822.969299,370.161818 828.863768,377.958937 832.189417,386.295788 C834.469122,392.01063 835.358948,398.445439 833.435829,401.651825 C830.283443,406.907747 826.64406,410.172096 822.517682,411.444872 C820.3865,420.120151 817.492265,426.355571 813.834975,430.151131 C810.177684,433.94669 806.478468,436.65544 802.737324,438.27738 L801.982921,462.191272 L899.824678,460.796287 Z" id="Path" fill="#17B3ED" opacity="0.65"></path>
                    <path data-item="3" d="M731.041919,422.303711 C731.791311,435.659296 732.548463,443.167368 733.313373,444.827928 C734.460738,447.318767 741.383133,472.045062 743.411715,474.85808 C745.440298,477.671099 752.855434,487.58522 774.556046,487.58522 C796.256658,487.58522 801.862101,477.291709 801.68,474.061003 C801.558599,471.907199 801.858804,459.915217 802.580615,438.085055 C808.764598,435.350931 813.475655,431.457042 816.713788,426.403388 C819.951921,421.349735 821.791738,416.363186 822.233238,411.443741 C828.157732,408.921028 831.859844,405.499076 833.339576,401.177886 C835.559174,394.6961 833.967234,388.709086 828.539595,378.912367 C824.921169,372.381221 820.044761,365.238522 813.91037,357.484271 L813.91037,357.484271 L813.91037,357.484271 C813.532486,356.07326 812.828575,354.770688 811.855307,353.681424 L807.554654,348.868207 C806.762577,346.69318 805.104564,345.505913 802.580615,345.306408 C800.056667,345.106904 788.682007,344.778684 768.456638,344.321751 L767.810496,324.130643 L767.810496,307.270977 C766.867178,306.498763 764.73144,306.112248 761.403284,306.111431 C758.075127,306.110615 756.09028,306.49713 755.448742,307.270977 L755.448742,344.321751 C746.742447,344.778684 739.142407,345.007151 732.648622,345.007151 C722.907945,345.007151 713.427736,344.41403 712.896047,348.295755 C712.364359,352.17748 711.243735,355.290723 710.98906,361.569343 C710.734385,367.847963 711.793943,384.631632 716.204261,394.044598 C720.61458,403.457564 723.473936,404.56872 726.145241,407.075863 C727.305777,408.165079 727.115002,412.328458 728.041678,415.241689 C728.542013,416.814616 729.542094,419.168624 731.041919,422.303711 Z" id="Bide" fill="#17B3ED" opacity="0.65"></path>
                    <rect id="Rectangle-13" stroke="#979797" x="0.5" y="1.5" width="1399" height="555"></rect>
                </g>
            </g>
        </g>
    </g>
</svg>