<?xml version="1.0" encoding="UTF-8"?>
<svg width="150px" height="143px" viewBox="0 0 150 143" version="1.1" xmlns="http://www.w3.org/2000/svg" xmlns:xlink="http://www.w3.org/1999/xlink">
    <g id="Page-1" stroke="none" stroke-width="1" fill="none" fill-rule="evenodd" opacity="0.652909873">
        <g id="Saten_Home" transform="translate(-438.000000, -460.000000)" fill="#17B3ED">
            <g id="Image" transform="translate(-1.000000, 120.000000)">
                <g id="Hower" transform="translate(439.000000, 340.000000)">
                    <path d="M14.4757686,70.8238212 C9.38122324,68.9498284 5.76740708,66.1298378 3.63432012,62.3638494 C1.50123317,58.5978611 1.21939224,55.4140439 2.78879735,52.8123979 C0.406104188,50.9320798 -0.299288789,48.5824729 0.672618416,45.7635771 C2.13047922,41.5352333 6.39166587,36.1300183 18.8781798,23.4676122 C31.3646938,10.8052061 39.8910812,4.74568707 43.2760917,4.11838726 C45.5327653,3.70018739 48.1140974,3.35180914 51.0200877,3.0732525 C51.513421,1.7765816 52.4912683,1.09224058 53.9536298,1.02022943 C56.1471721,0.912212708 73.1823888,0.574213693 90.3872568,0.574213693 C107.592125,0.574213693 135.044993,0.986656664 138.367967,1.02022943 C141.69094,1.05380219 147.444009,1.02022943 148.86791,4.11838726 C150.291811,7.21654509 149.664168,10.2939513 146.771072,18.7433404 C143.877975,27.1927294 140.08494,35.193294 138.367967,38.8292524 C136.650993,42.4652108 129.634129,51.5402821 129.474658,52.8123979 C129.368344,53.6604752 128.81154,64.5140298 127.804246,85.373062 C126.771544,85.8315189 125.86862,87.057226 125.095473,89.0501831 C124.322327,91.0431403 117.45309,103.840567 104.487764,127.442464 C101.706854,132.339997 97.5251162,135.830736 91.9425493,137.91468 C83.568699,141.040596 74.6436365,143.37639 61.366338,142.746171 C48.0890394,142.115952 44.3675715,138.887857 42.6882034,136.977129 C41.0088353,135.066401 40.5734842,132.547427 40.5734842,129.477953 C40.5734842,127.431638 40.4578839,116.193842 40.2266834,95.764564 C34.9592489,93.8678175 29.8342136,90.8975367 24.8515775,86.8537215 C19.8689413,82.8099063 16.4103384,77.4666062 14.4757686,70.8238212 Z" id="Path-2"></path>
                </g>
            </g>
        </g>
    </g>
</svg>