<?xml version="1.0" encoding="UTF-8"?>
<svg width="128px" height="25px" viewBox="0 0 128 25" version="1.1" xmlns="http://www.w3.org/2000/svg" xmlns:xlink="http://www.w3.org/1999/xlink">
    <!-- Generator: Sketch 47 (45396) - http://www.bohemiancoding.com/sketch -->
    <title>Group 16</title>
    <desc>Created with Sketch.</desc>
    <defs>
        <polygon id="path-1" points="27.1652601 0.00875686813 0.0651426726 0.00875686813 0.0651426726 23.4549502 27.1652601 23.4549502 27.1652601 0.00875686813"></polygon>
        <polygon id="path-3" points="0.0605982915 22.6705586 27.5186323 22.6705586 27.5186323 0.0950898581 0.0605982915 0.0950898581 0.0605982915 22.6705586"></polygon>
    </defs>
    <g id="Page-1" stroke="none" stroke-width="1" fill="none" fill-rule="evenodd">
        <g id="Saten_Home" transform="translate(-167.000000, -15.000000)">
            <g id="Page-1" transform="translate(130.000000, 15.000000)">
                <g id="Group-16" transform="translate(37.000000, 0.000000)">
                    <g id="Group-6" transform="translate(20.513513, 0.000000)">
                        <mask id="mask-2" fill="white">
                            <use xlink:href="#path-1"></use>
                        </mask>
                        <g id="Clip-5"></g>
                        <path d="M7.8080614,14.8440299 L10.8336573,6.84589572 L14.1520371,14.8440299 L7.8080614,14.8440299 Z M24.9693327,22.4229046 C24.6765489,22.1864692 24.39996,21.8854275 24.1396641,21.5198769 C23.8794664,21.1544236 23.6191705,20.6921583 23.3588747,20.1331782 C23.1637509,19.7246217 22.9414394,19.2623563 22.6919401,18.7463822 C22.442539,18.2303108 22.1985361,17.7089852 21.9600297,17.182211 C21.7214252,16.6554367 21.4937154,16.144814 21.2768022,15.6503428 C21.0598889,15.1557744 20.8755618,14.736515 20.7237225,14.3925647 L16.5269915,4.36254522 C16.2883869,3.76055918 16.0443841,3.16927598 15.794983,2.58879293 C15.5455818,2.00830987 15.3123756,1.40622653 15.0954623,0.782737523 L14.8352646,0.00872767857 C14.5966601,0.309769345 14.3797469,0.567707761 14.184525,0.782737523 C13.9894012,0.997767285 13.8049759,1.19664549 13.6315435,1.37937214 C13.4580129,1.56209879 13.2736857,1.74492273 13.0784638,1.92764938 C12.8832419,2.11037603 12.6663287,2.30925424 12.4278223,2.524284 C12.0590698,2.84682864 11.7553913,3.11556719 11.5168849,3.33049966 C11.2782804,3.54552942 11.0450741,3.73370478 10.8173643,3.89492846 C10.5896545,4.05615213 10.3619447,4.20132154 10.1341367,4.3303394 C9.90642692,4.45935726 9.62993617,4.60978079 9.30456634,4.7818046 C9.60824485,5.08284627 9.8468494,5.3462334 10.0202818,5.571966 C10.1938124,5.7976986 10.3781396,6.09338885 10.5733615,6.45884215 L7.28756781,15.0697625 C6.72359343,16.5532732 6.11633455,17.8110514 5.46569303,18.843097 C4.81505151,19.8751425 4.06674997,20.7781702 3.22088655,21.5521801 C2.93889936,21.8102158 2.68409993,22.030597 2.45639012,22.2133236 C2.22858216,22.3960503 2.00087235,22.5412197 1.77316254,22.6487345 C1.54545273,22.7561521 1.2960516,22.8476128 1.024861,22.9228245 C0.753768544,22.9980363 0.433895153,23.0679939 0.0651426726,23.1324056 L0.0651426726,23.4549502 L10.1179418,23.4549502 L10.1179418,23.1324056 C9.09854785,23.0679939 8.30686366,22.6862918 7.74298743,21.987591 C7.1791112,21.2887929 6.89712401,20.3374079 6.89712401,19.1333385 C6.89712401,18.5098495 6.95679968,17.902512 7.07605288,17.3112288 C7.19540423,16.7199456 7.40682101,16.0265963 7.71049952,15.2310834 L14.282185,15.2310834 L14.9979005,16.8758179 C15.4533201,17.9293664 15.7894865,18.8269454 16.0063997,19.5687494 C16.223313,20.3105535 16.3317696,20.8963879 16.3317696,21.3264475 C16.3317696,22.4659106 15.5617767,23.0679939 14.0218891,23.1324056 L14.0218891,23.4549502 L27.1652601,23.4549502 L27.1652601,23.1324056 C26.7098404,23.1109999 26.3032018,23.046491 25.945344,22.9389761 C25.5874863,22.8314612 25.2621164,22.6594374 24.9693327,22.4229046 L24.9693327,22.4229046 Z" id="Fill-4" fill="#000000" mask="url(#mask-2)"></path>
                    </g>
                    <path d="M13.0990264,10.6514457 L10.0734305,9.49038233 C9.20587573,9.16793498 8.41428969,8.82923878 7.69847605,8.47448832 C6.98276056,8.11973787 6.42968092,7.7918418 6.03933527,7.49089744 C5.69227411,7.21135875 5.41578336,6.85660829 5.20976488,6.42664606 C5.00364824,5.99658654 4.90068807,5.54512134 4.90068807,5.07205586 C4.90068807,4.12602221 5.22056146,3.36816392 5.86040639,2.7983837 C6.50025133,2.22860348 7.34061831,1.94371337 8.38170363,1.94371337 C10.0083565,1.94371337 11.5048614,2.63716003 12.8713166,4.02395604 C14.2376736,5.41075206 15.3329382,7.3403766 16.1571103,9.81292697 L16.4824801,9.81292697 L16.1246224,1.7824897 L15.7992525,1.7824897 C15.7341785,2.06202839 15.6474133,2.25010646 15.5389566,2.3469185 C15.4305982,2.44363324 15.2570676,2.49199061 15.0184631,2.49199061 C14.6714019,2.49199061 14.1834944,2.41677885 13.554446,2.26625801 L12.5134589,2.04052541 C11.6892868,1.8685016 10.9734731,1.73948375 10.3662142,1.65347184 C9.75895537,1.56745994 9.17338782,1.52455128 8.60941344,1.52455128 C7.39489569,1.52455128 6.27244337,1.70727793 5.24225278,2.07273123 C4.2120622,2.43828182 3.32281613,2.93275298 2.57451459,3.55633929 C1.82631119,4.1798283 1.23524719,4.92698375 0.801518899,5.79770833 C0.367692452,6.66853022 0.150779228,7.59841232 0.150779228,8.58735462 C0.150779228,9.8774359 0.617093583,10.9954934 1.54972229,11.9414297 C2.482351,12.8874634 3.97885594,13.7582853 6.03933527,14.5537981 L9.22756705,15.7792731 C10.8542199,16.4028594 12.0308515,17.0585543 12.7574617,17.7465522 C13.4839738,18.4346474 13.847328,19.2408631 13.847328,20.1653938 C13.847328,21.1544334 13.5110634,21.9499462 12.8387305,22.5519322 C12.1663977,23.1539183 11.2771516,23.4549599 10.1709923,23.4549599 C9.26005496,23.4549599 8.43588286,23.3044391 7.69847605,23.0034947 C6.96106924,22.7024531 6.24535375,22.2294849 5.55132959,21.5843956 C4.51024427,20.573853 3.57761556,19.4558929 2.75344346,18.2303205 C2.40648045,17.7143464 2.11909497,17.2682326 1.89138516,16.8919792 C1.6635772,16.5157257 1.462957,16.1609753 1.28952458,15.8276305 C1.115994,15.494383 0.964154741,15.1450813 0.834006807,14.7795307 C0.703858873,14.4139801 0.562914353,13.9840179 0.411075096,13.4895467 L0.0858034118,13.4895467 L0.411075096,23.4549599 L0.736444932,23.4549599 C0.801518899,23.1539183 0.915373803,22.9496886 1.07800965,22.8421738 C1.24064549,22.7346589 1.48464833,22.6809501 1.81001816,22.6809501 C1.98354874,22.6809501 2.16787591,22.6971016 2.36309781,22.7293075 C2.55831971,22.7616106 2.90528271,22.8314709 3.40418313,22.9389858 C4.77054014,23.2399302 6.07182317,23.4711115 7.3081304,23.6323352 C8.54433947,23.7935588 9.57462821,23.8742193 10.3988003,23.8742193 C11.5482441,23.8742193 12.616419,23.6914927 13.6033251,23.3259421 C14.5901331,22.9604888 15.4413948,22.4605689 16.1571103,21.8262798 C16.8728257,21.1919906 17.4368001,20.439581 17.8488371,19.5687592 C18.2609722,18.6979373 18.4669907,17.7573523 18.4669907,16.7468098 C18.4669907,15.3278079 18.0331643,14.1345387 17.1657077,13.1670021 C16.2980548,12.1994654 14.9425925,11.3609467 13.0990264,10.6514457" id="Fill-7" fill="#000000"></path>
                    <path d="M68.2645152,1.58900183 C68.047602,1.69651671 67.7765095,1.77172848 67.4511397,1.81473443 C67.1475593,1.85774038 66.7192293,1.8900435 66.1661497,1.91154647 C65.61307,1.93304945 65.1088695,1.94375229 64.6533517,1.94375229 L53.6897133,1.94375229 C53.0390718,1.94375229 52.4480078,1.93840087 51.9166195,1.92760073 C51.3852311,1.91689789 50.9569011,1.8900435 50.6316294,1.84703755 C50.262877,1.80403159 49.9646949,1.72337111 49.7368869,1.60515339 C49.5091771,1.48683837 49.243483,1.27725733 48.9399026,0.976215659 L47.9638912,8.4906788 L48.2891629,8.4906788 C48.4410022,8.16813416 48.5765484,7.88859547 48.6958998,7.65216003 C48.815153,7.41562729 48.9399026,7.20059753 49.0700505,7.00707074 C49.2001003,6.81364125 49.3465413,6.62011447 49.5091771,6.42658768 L50.0785498,5.74929258 C50.772574,4.95377976 51.5316721,4.27658196 52.3558442,3.71750458 C52.681214,3.50257212 52.9685995,3.31974817 53.2180006,3.16932463 C53.4674018,3.0188038 53.7168029,2.88978594 53.966204,2.78227106 C54.2157033,2.67475618 54.4867958,2.58339286 54.7795796,2.50818109 C55.0723633,2.43287202 55.413928,2.35230884 55.8043718,2.26629693 L55.8043718,19.2946108 C55.8043718,19.6386584 55.7989736,19.9289 55.7880788,20.1654327 C55.7772822,20.4018681 55.7609892,20.6007463 55.7392979,20.7620673 C55.7176066,20.923291 55.6851186,21.0898661 55.641736,21.2618899 C55.5332794,21.6489435 55.3705454,21.9713908 55.1537303,22.2294265 C54.8717431,22.5304682 54.540975,22.7454006 54.1614259,22.8744185 C53.7818769,23.0034364 53.1800163,23.0894483 52.3558442,23.1324542 L52.3558442,23.4549989 L65.661851,23.4549989 L65.661851,23.1324542 C64.8376789,23.0894483 64.2250217,23.0034364 63.8237813,22.8744185 C63.4225409,22.7454006 63.1026675,22.5304682 62.864063,22.2294265 C62.6471498,21.9713908 62.4953105,21.6542949 62.4085452,21.2780414 C62.3218781,20.901788 62.2676007,20.4018681 62.2459094,19.7783791 C62.2242181,19.5418464 62.2134215,19.2731078 62.2134215,18.9721635 L62.2134215,2.26629693 C62.5820758,2.33080586 62.9020473,2.40066621 63.1731398,2.47587798 C63.4442322,2.55118704 63.6990317,2.63710165 63.9376362,2.73391369 C64.1762408,2.83062843 64.4148453,2.94349473 64.6533517,3.07251259 C64.8919563,3.20153045 65.1739434,3.37355426 65.4992151,3.58858402 C65.8679676,3.82501946 66.2312236,4.09920673 66.5890814,4.41095124 C66.9469391,4.72269574 67.2885038,5.03979167 67.6138737,5.36233631 C67.8740714,5.641875 68.0963829,5.88911058 68.2808082,6.10414034 C68.4651354,6.3190728 68.6331695,6.5449027 68.7850088,6.78133814 C68.936848,7.01787088 69.0777926,7.27045788 69.2079405,7.53929373 C69.3380884,7.80803228 69.4791311,8.12512821 69.6308722,8.4906788 L69.956242,8.4906788 L69.0777926,0.976215659 C68.7525209,1.27725733 68.4814284,1.48148695 68.2645152,1.58900183" id="Fill-9" fill="#000000"></path>
                    <g id="Group-13" transform="translate(99.917494, 1.848672)">
                        <mask id="mask-4" fill="white">
                            <use xlink:href="#path-3"></use>
                        </mask>
                        <g id="Clip-12"></g>
                        <path d="M17.8888041,0.0950898581 L17.8888041,0.417634501 C18.496063,0.503646406 18.9623773,0.611063988 19.2877472,0.740081845 C19.6130188,0.869099702 19.9166974,1.05182635 20.1986846,1.28835909 C20.6324128,1.67541266 20.979474,2.14838084 21.2397699,2.70736092 C21.6084242,3.48137076 21.8741184,4.30383528 22.0367542,5.17455987 C22.1994882,6.04538175 22.280757,7.11498455 22.280757,8.38346554 L22.280757,13.2211487 L10.6664771,0.0950898581 L0.0605982915,0.0950898581 L0.0605982915,0.417634501 C0.711337962,0.439137477 1.22103496,0.492846268 1.58968929,0.578858173 C1.95844177,0.664870078 2.38137348,0.82609375 2.85848442,1.06262649 C3.48743462,1.40657681 3.95374898,1.7721274 4.25742749,2.15918098 C4.43095807,2.39561641 4.57730088,2.62134902 4.69665223,2.83637878 C4.81590543,3.05140854 4.90806901,3.29864412 4.97314298,3.57818281 C5.03821694,3.8576242 5.08159959,4.1963204 5.10329091,4.59407681 C5.12498223,4.99183322 5.13577882,5.48095295 5.13577882,6.06143601 L5.10329091,11.8988616 C5.08159959,13.683414 4.9948343,15.0862643 4.84299504,16.1075097 C4.69115578,17.1288524 4.42006333,17.9834255 4.02971768,18.6715207 C3.68265652,19.2950097 3.24892822,19.8163353 2.72833649,20.2355947 C2.2078429,20.6548541 1.61138061,20.9505443 0.939047771,21.1225681 C0.808899837,21.1439738 0.67335361,21.1655741 0.53240909,21.187077 C0.39136642,21.20858 0.23412887,21.2407858 0.0605982915,21.2837918 L0.0605982915,21.6062391 L10.3736933,21.6062391 L10.3736933,21.2837918 C9.70136049,21.2192829 9.18616705,21.1279195 8.82830931,21.0097018 C8.47045156,20.8913868 8.13968344,20.7033087 7.83610307,20.445273 C7.42396795,20.1227284 7.06611021,19.7142691 6.76252984,19.2197007 C6.3287034,18.5101997 6.0142283,17.628675 5.8190064,16.5752238 C5.62378449,15.5216753 5.52622262,14.1563822 5.52622262,12.4793447 L5.52622262,3.25563816 L22.7036888,22.6705878 L22.7036888,9.77026156 C22.7036888,8.15773294 22.790454,6.82474302 22.9639846,5.77119448 C23.1375152,4.71764595 23.4410956,3.77170959 23.874922,2.93319082 C24.0484526,2.61064618 24.221885,2.31505323 24.3954156,2.04621738 C24.5689462,1.77747882 24.7641681,1.5463948 24.9810813,1.35286802 C25.2846617,1.05182635 25.6154298,0.842245307 25.9732875,0.724027587 C26.3311453,0.605712569 26.8462406,0.503646406 27.5186716,0.417634501 L27.5186716,0.0950898581 L17.8888041,0.0950898581 Z" id="Fill-11" fill="#000000" mask="url(#mask-4)"></path>
                    </g>
                    <path d="M94.028398,17.8111 C93.2909912,18.8861516 92.4668191,19.8106822 91.5558817,20.5846921 C90.6449444,21.3587019 89.6743313,21.9660394 88.6441407,22.4068017 C87.6139501,22.8475641 86.5891578,23.0679453 85.5697638,23.0679453 C84.8106657,23.0679453 84.3009687,22.8744185 84.0406728,22.4874622 C83.7804751,22.1004087 83.6503272,21.3479018 83.6503272,20.2299416 L83.6503272,12.6187637 C84.5829559,12.6617697 85.3203627,12.7799874 85.8625476,12.9735142 C86.4048307,13.167041 86.9361208,13.4894883 87.4567126,13.9410508 C88.4761066,14.8225755 89.159236,15.9943418 89.5062972,17.4563496 L89.8315688,17.4563496 L89.8315688,7.52314217 L89.5062972,7.52314217 C89.4195319,8.08212225 89.3273683,8.50138164 89.2297083,8.78092033 C89.1321464,9.06045902 88.9641123,9.38290636 88.7255077,9.74845696 C88.4869032,10.0924073 88.1507367,10.4471577 87.7170084,10.8127083 C87.1747254,11.2426706 86.5891578,11.5705666 85.9602076,11.7962992 C85.3311593,12.0221291 84.5612646,12.1780014 83.6503272,12.2640133 L83.6503272,2.33080586 L84.5612646,2.33080586 C86.1662261,2.33080586 87.5813641,2.61024725 88.8067766,3.16932463 C90.0322872,3.72830472 91.1654379,4.62053228 92.2065233,5.84610462 C92.4668191,6.14714629 92.6945289,6.42123626 92.8897508,6.66847184 C93.0848746,6.91570742 93.2639016,7.16839171 93.4265375,7.42642743 C93.5891733,7.68436584 93.7410126,7.96925595 93.8819571,8.28100046 C94.0229998,8.59274496 94.1802373,8.95294414 94.3537679,9.36140339 L94.6790396,9.36140339 L93.3777565,1.94375229 L74.2156816,1.94375229 L74.2156816,2.26629693 C74.9530884,2.33080586 75.489875,2.42216918 75.8261396,2.5403869 C76.162306,2.65870192 76.4387968,2.86828297 76.65571,3.16932463 C76.8509319,3.44876603 76.9972747,3.77131067 77.0948366,4.13686126 C77.1924966,4.50231456 77.2412776,5.00758585 77.2412776,5.65257784 L77.2412776,19.262405 C77.2412776,19.6063553 77.230481,19.8965968 77.2087897,20.1331296 C77.1870983,20.3696623 77.165407,20.5738919 77.1437157,20.7459158 L77.0786417,21.2618899 C77.0135678,21.6059375 76.8725251,21.9283848 76.65571,22.2294265 C76.4171055,22.5304682 76.12972,22.7454979 75.7935536,22.8744185 C75.4573871,23.0034364 74.9313971,23.0894483 74.2156816,23.1324542 L74.2156816,23.4549989 L94.6465517,23.4549989 L96.1430566,14.2958013 L95.8176868,14.2958013 C95.3622671,15.5642823 94.7658049,16.7360485 94.028398,17.8111" id="Fill-14" fill="#000000"></path>
                </g>
            </g>
        </g>
    </g>
</svg>