<svg width="88px" height="90px" viewBox="0 0 88 90" version="1.1" xmlns="http://www.w3.org/2000/svg" xmlns:xlink="http://www.w3.org/1999/xlink">
    <g id="Page-1" stroke="none" stroke-width="1" fill="none" fill-rule="evenodd">
        <g id="Saten_Home" transform="translate(-1106.000000, -1711.000000)">
            <g id="noun_1153323_cc" transform="translate(1109.000000, 1714.000000)">
                <g id="Group">
                    <path d="M0,84 L64.2449805,84 C73.0207493,81.5837508 78.565818,77.5776631 80.8801867,71.9817367 C83.1945554,66.3858104 81.9215164,60.363882 77.0610698,53.9159515 L77.0610698,25.2578257 L66.5830966,2.27373675e-13 L11.0400156,2.27373675e-13 L0,25.2578257 L0,84 Z" id="Path-10" fill="#4892E8"></path>
                    <ellipse id="Oval" stroke="#FFFFFF" stroke-width="4.4" stroke-linecap="round" stroke-linejoin="round" cx="63.6502222" cy="65.8521505" rx="18.2222222" ry="18.2795699"></ellipse>
                    <polyline id="Shape" stroke="#FFFFFF" stroke-width="4.4" stroke-linecap="round" stroke-linejoin="round" points="72.4151111 59.9387097 60.6162222 71.7747312 54.8853333 66.0258065"></polyline>
                    <polyline id="Shape" stroke="#FFFFFF" stroke-width="4.4" stroke-linecap="round" stroke-linejoin="round" points="38.5946667 84.3784946 0 84.3784946 0 25.8107527 77.1893333 25.8107527 77.1893333 39.7032258"></polyline>
                    <polygon id="Shape" stroke="#FFFFFF" stroke-width="4.4" stroke-linecap="round" stroke-linejoin="round" points="66.3015556 0 10.8877778 0 0 25.8107527 77.1893333 25.8107527"></polygon>
                    <path d="M38,24.8145161 L38,0" id="Shape" stroke="#FFFFFF" stroke-width="4.4" stroke-linecap="round" stroke-linejoin="round"></path>
                    <path d="M29.684,39 L47.5053333,39" id="Shape" stroke="#FFFFFF" stroke-width="4.4" stroke-linecap="round" stroke-linejoin="round"></path>
                </g>
            </g>
        </g>
    </g>
</svg>