<?xml version="1.0" encoding="UTF-8"?>
<svg width="76px" height="99px" viewBox="0 0 76 99" version="1.1" xmlns="http://www.w3.org/2000/svg" xmlns:xlink="http://www.w3.org/1999/xlink">
    <!-- Generator: Sketch 47 (45396) - http://www.bohemiancoding.com/sketch -->
    <title>noun_1327237_cc</title>
    <desc>Created with Sketch.</desc>
    <defs></defs>
    <g id="Page-1" stroke="none" stroke-width="1" fill="none" fill-rule="evenodd">
        <g id="Saten_Home" transform="translate(-809.000000, -1680.000000)">
            <g id="Preimushchestva" transform="translate(130.000000, 1654.000000)">
                <g id="noun_1327237_cc" transform="translate(679.000000, 26.000000)">
                    <g id="Group">
                        <path d="M3.56403293,90.4415877 L13.0219902,82.8849756 L15.3677993,94.0856523 L28.6137518,58.9914479 L31.5981007,57.8155455 L37.9040554,65.0328433 L45.9090355,59.404084 L60.8929851,95.3732242 L62.4496131,81.8836973 L72.5980482,89.5244399 L57.8316274,52.6233835 L63.9567768,50.396643 C62.952001,44.3415074 62.4496131,41.0955971 62.4496131,40.6589118 C62.4496131,40.2222266 64.4166953,37.6423362 68.3508596,32.9192405 L62.4496131,27.2578212 L63.9567768,18.1503858 L56.8466517,15.9124989 L54.9295335,7.89028121 C49.4579774,9.24230668 46.4511447,9.8253864 45.9090355,9.63952037 C45.3669262,9.45365434 42.7569325,7.21451829 38.0790542,2.92211223 C34.28354,6.72736943 32.1232222,8.66547246 31.5981007,8.73642132 C31.0729792,8.80737018 28.2894855,8.52532348 23.2476196,7.89028121 L20.6177652,15.0408771 L13.0219902,18.1503858 L13.0219902,27.2578212 L7.24215624,34.308739 L13.0219902,40.6589118 L11.5283168,50.396643 L16.3024056,52.14888 L3.56403293,90.4415877 Z" id="Path-9" fill="#C2DAE3"></path>
                        <path d="M27.0430456,64.5268318 C26.1799697,64.1780529 25.1442786,64.7012212 24.7990482,65.5731682 L16.3409042,89.6389077 L14.9599827,81.9657734 C14.7873675,81.2682157 14.4421371,80.7450475 13.7516764,80.5706581 C13.2338308,80.3962687 12.5433701,80.5706581 12.0255246,80.9194369 L6.32922345,86.1511194 L15.6504434,58.2488128 C15.9956738,57.3768657 15.4778283,56.3305292 14.6147523,55.9817503 C13.7516764,55.6329715 12.7159853,56.1561398 12.3707549,57.0280868 L0.80553753,91.2084125 C0.632922345,91.9059701 0.80553753,92.7779172 1.49599827,93.3010855 C2.18645901,93.6498643 3.04953493,93.6498643 3.56738049,93.1266961 L11.8529094,85.4535617 L13.7516764,96.7888738 C13.9242916,97.4864315 14.4421371,98.1839891 15.3052131,98.1839891 C15.9956738,98.1839891 16.8587497,97.8352103 17.0313649,96.9632632 L27.7335064,66.4451153 C28.4239671,65.7475577 27.9061216,64.7012212 27.0430456,64.5268318 Z" id="Shape" stroke="#FFFFFF" stroke-width="0.4" fill="#FFFFFF" fill-rule="nonzero"></path>
                        <path d="M75.2026822,90.6852442 L62.0839282,58.2488128 C61.7386978,57.3768657 60.7030067,56.8536974 59.8399308,57.3768657 C58.9768549,57.7256445 58.4590093,58.771981 58.9768549,59.6439281 L69.5063811,85.8023406 L63.4648497,80.9194369 C62.9470041,80.5706581 62.2565434,80.3962687 61.7386978,80.7450475 C61.2208523,80.9194369 60.7030067,81.4426052 60.7030067,82.1401628 L59.8399308,89.6389077 L50.1734804,65.7475577 C49.8282501,64.8756106 48.7925589,64.3524423 47.929483,64.8756106 C47.0664071,65.2243894 46.5485615,66.2707259 47.0664071,67.142673 L59.3220852,97.3120421 C59.6673156,98.0095997 60.3577763,98.532768 61.2208523,98.3583786 C62.0839282,98.1839891 62.6017737,97.6608209 62.7743889,96.7888738 L63.9826952,85.4535617 L72.7860697,92.6035278 C73.4765304,93.1266961 74.3396063,93.1266961 74.8574519,92.6035278 C75.3752974,92.254749 75.5479126,91.3828019 75.2026822,90.6852442 Z" id="Shape" stroke="#FFFFFF" stroke-width="0.4" fill="#FFFFFF" fill-rule="nonzero"></path>
                        <path d="M37.7451871,15.0929104 C27.388276,15.0929104 18.9301319,23.6379919 18.9301319,34.1013569 C18.9301319,44.5647218 27.388276,53.1098033 37.7451871,53.1098033 L37.7451871,53.1098033 C48.1020982,53.1098033 56.5602423,44.5647218 56.5602423,34.1013569 C56.5602423,23.6379919 48.1020982,15.0929104 37.7451871,15.0929104 Z M37.7451871,49.6220149 L37.7451871,49.6220149 C29.287043,49.6220149 22.3824356,42.6464383 22.3824356,34.1013569 C22.3824356,25.5562754 29.287043,18.5806988 37.7451871,18.5806988 C46.2033312,18.5806988 53.1079386,25.5562754 53.1079386,34.1013569 C53.1079386,42.6464383 46.2033312,49.6220149 37.7451871,49.6220149 Z" id="Shape" stroke="#FFFFFF" stroke-width="0.4" fill="#FFFFFF" fill-rule="nonzero"></path>
                        <path d="M55.1793208,61.3061058 L57.0780878,54.1561398 L64.3279256,52.586635 C64.8457711,52.4122456 65.1910015,52.2378562 65.3636167,51.8890773 C65.5362319,51.5402985 65.7088471,51.0171303 65.5362319,50.493962 L63.6374648,41.4257123 L70.0242267,34.7989145 C70.3694571,34.4501357 70.5420722,34.1013569 70.5420722,33.5781886 C70.5420722,33.0550204 70.3694571,32.7062415 70.0242267,32.3574627 L63.9826952,26.6026119 L66.0540774,18.7550882 C66.2266926,18.2319199 66.0540774,17.8831411 65.8814623,17.3599729 C65.7088471,17.011194 65.1910015,16.6624152 64.8457711,16.4880258 L57.7685486,14.5697422 L56.0423967,7.41977612 C55.8697815,6.54782904 54.8340904,5.85027137 53.9710145,6.02466079 L45.5128704,7.94294437 L39.1926819,1.49053596 C38.5022211,0.79297829 37.46653,0.79297829 36.7760693,1.49053596 L31.0797682,7.41977612 L23.5394946,5.31389625 L23.5394946,5.31389625 C22.4756364,5.0167774 21.3723466,5.6383424 21.0752277,6.70220056 C21.0666998,6.73273539 21.0588992,6.76346868 21.0518324,6.79437438 L19.4479775,13.808625 L11.5837214,15.4783251 L11.5837214,15.4783251 C10.5032364,15.7077283 9.8132983,16.7696026 10.0427016,17.8500876 C10.0439989,17.8561983 10.0453249,17.8623028 10.0466795,17.868401 L12.0255246,26.7770014 L5.76637564,32.7369898 L5.76637564,32.7369898 C4.9664444,33.4986878 4.9354502,34.7646384 5.69714816,35.5645696 C5.72065586,35.5892573 5.7447909,35.6133399 5.76952964,35.6367938 L11.507679,41.0769335 L9.60891196,49.6220149 C9.43629678,50.1451832 9.60891196,50.493962 9.78152715,51.0171303 C9.95414233,51.3659091 10.4719879,51.7146879 10.8172183,51.8890773 L17.8944408,53.8073609 L19.4479775,60.957327 C19.6205927,61.8292741 20.6562838,62.5268318 21.5193597,62.3524423 L30.4953493,60.4341588 L37.0547264,66.8865672 C37.3999567,67.235346 37.7451871,67.4097354 38.2630327,67.4097354 C38.7808782,67.4097354 39.1261086,67.235346 39.471339,66.8865672 L45.1676401,60.957327 L53.1079386,63.05 C53.9710145,62.7012212 54.8340904,62.1780529 55.1793208,61.3061058 Z M44.9950249,56.9463704 C44.4771793,56.771981 43.7867186,56.9463704 43.268873,57.4695387 L38.0904175,62.8756106 L32.2215012,56.771981 C31.8762708,56.4232022 31.1858101,56.2488128 30.6679645,56.2488128 L22.3824356,57.9927069 L21.0015142,51.3659091 C20.828899,50.6683514 20.3110534,50.1451832 19.7932079,49.9707938 L13.406446,48.2268996 L15.3052131,41.0769335 C15.4778283,40.5537653 15.3052131,39.8562076 14.7873675,39.3330393 C13.9242916,38.4610923 10.4719879,34.9733039 9.43629678,34.1013569 L15.3052131,27.9977273 C15.6504434,27.6489484 15.8230586,26.9513908 15.8230586,26.4282225 L14.0969068,18.2319199 L20.6562838,16.8368046 C21.3467445,16.6624152 21.8645901,16.1392469 22.0372053,15.6160787 L23.7633571,9.16367028 L31.0131949,11.0819539 C31.5310404,11.2563433 32.2215012,11.0819539 32.7393467,10.5587856 L37.9178023,5.1527137 L43.9593338,11.0819539 C44.3045641,11.4307327 44.9950249,11.6051221 45.5128704,11.6051221 L53.7983993,9.86122795 L55.1793208,16.4880258 C55.351936,17.1855834 55.8697815,17.7087517 56.3876271,17.8831411 L62.7743889,19.6270353 L60.3577763,26.6026119 C60.1851612,27.1257802 60.3577763,27.8233379 60.8756219,28.3465061 L66.2266926,33.5781886 L60.3577763,39.6818182 C60.012546,40.030597 59.8399308,40.7281547 59.8399308,41.2513229 L61.5660826,49.4476255 L55.1793208,51.0171303 C54.48886,51.1915197 53.9710145,51.7146879 53.7983993,52.2378562 L52.0722475,58.6902646 L44.9950249,56.9463704 Z" id="Shape" stroke="#FFFFFF" stroke-width="0.4" fill="#FFFFFF" fill-rule="nonzero"></path>
                        <path d="M49.3104045,27.3001696 C48.6199438,26.6026119 47.5842526,26.6026119 46.8937919,27.3001696 L35.3285745,39.3330393 L29.4596582,32.5318521 C28.7691975,31.8342944 27.7335064,31.8342944 27.0430456,32.3574627 C26.3525849,33.0550204 26.1799697,34.1013569 26.8704305,34.7989145 L33.947653,42.9952171 C34.2928834,43.3439959 34.6381138,43.5183853 35.1559593,43.5183853 C35.5011897,43.5183853 36.0190353,43.3439959 36.3642656,42.9952171 L49.3104045,29.567232 C50.0008652,29.0440638 50.0008652,27.8233379 49.3104045,27.3001696 Z" id="Shape" stroke="#FFFFFF" stroke-width="0.4" fill="#FFFFFF" fill-rule="nonzero"></path>
                    </g>
                </g>
            </g>
        </g>
    </g>
</svg>