<?xml version="1.0" encoding="UTF-8"?>
<svg width="97px" height="96px" viewBox="0 0 97 96" version="1.1" xmlns="http://www.w3.org/2000/svg" xmlns:xlink="http://www.w3.org/1999/xlink">
    <!-- Generator: Sketch 47 (45396) - http://www.bohemiancoding.com/sketch -->
    <title>Group 11</title>
    <desc>Created with Sketch.</desc>
    <defs></defs>
    <g id="Page-1" stroke="none" stroke-width="1" fill="none" fill-rule="evenodd">
        <g id="Saten_Home" transform="translate(-214.000000, -1710.000000)">
            <g id="Preimushchestva" transform="translate(130.000000, 1654.000000)">
                <g id="Group-11" transform="translate(85.000000, 57.000000)">
                    <path d="M3.92367831,17.4618031 L11.6182881,24.942218 L22.714495,22.1677105 L25.6384832,11.5345291 L17.46353,2.94394669 C24.8075285,2.7203333 29.9184313,4.74287997 32.7962385,9.01158671 C35.6740456,13.2802935 36.6985352,17.3153607 35.8697073,21.1167883 L52.9822378,37.9869581 C63.2812571,28.353681 69.4118798,22.730291 71.374106,21.1167883 C71.7885436,20.7760039 72.3278137,13.0760729 72.6173479,12.8525556 C72.9142659,12.623338 82.7087069,6.49439358 84.7143981,8.39003389 C86.8493326,10.4078261 81.1941897,20.4664652 81.2215915,20.4934789 C81.296298,20.5671273 72.9312024,21.0603087 71.9348859,22.2072727 C70.3183245,24.0682656 64.721424,30.0386033 55.1441847,40.1182859 L72.6173479,57.3439808 C78.7490944,56.9137681 83.6306113,58.7397416 87.2618983,62.8219013 C90.8931853,66.904061 91.9769204,70.9424703 90.5131033,74.9371291 L82.9570367,67.7110137 L71.374106,71 L68.8985599,81.8050377 L76.8474691,89.498736 C70.8080846,90.3081192 66.0164993,88.8701271 62.4727131,85.1847597 C58.928927,81.4993922 57.3201866,76.771139 57.646492,71 L47.7890137,61.0302632 L22.714495,85.1847597 C17.7603646,86.9037876 13.5627523,86.1150643 10.1216582,82.8185897 C6.68056407,79.5221151 5.83776034,75.5825852 7.59324699,71 L32.76271,45.8328376 L22.714495,35.670192 C16.4539277,36.3070041 11.4135117,34.5445295 7.59324699,30.3827683 C3.77298233,26.2210071 2.54979276,21.9140187 3.92367831,17.4618031 Z" id="Path-6" fill="#C1C5C8"></path>
                    <g id="noun_1075897_cc" stroke="#FFFFFF" stroke-width="0.2" fill="#FFFFFF" fill-rule="nonzero">
                        <path d="M11.4352216,22.6201314 L3.53061264,14.770297 C2.3449213,13.5928219 0.368769058,14.3778053 0.171153834,15.9477722 C-0.619307063,21.8351479 1.35684518,27.9187695 5.50676488,32.0399326 C9.45906937,35.9648497 14.9922956,37.9273083 20.5255219,37.5348166 L29.6158222,46.5621261 L7.48291712,68.5416623 C4.71630399,71.0928584 1.15922995,78.3539552 7.48291712,85.0263144 L8.86622369,86.4000354 C11.0399912,88.5587399 18.5493697,92.8761488 25.4659025,86.4000354 L47.7964228,64.4204992 L56.8867231,73.4478087 C56.4914927,78.9426928 58.2700297,84.4375768 62.4199494,88.5587399 C65.9770235,92.0911653 71.3126345,94.6423615 78.6243978,93.857378 C80.2053196,93.6611322 80.9957805,91.6986736 79.8100891,90.5211984 L71.9054802,82.6713641 L74.2768629,73.6440546 L83.5647784,71.0928584 L91.4693874,78.9426928 C92.6550787,80.1201679 94.6312309,79.3351845 94.8288462,77.7652176 C95.6193071,71.8778419 93.6431548,65.7942203 89.4932351,61.6730572 C85.5409306,57.7481401 80.0077044,55.7856815 74.4744781,56.1781732 L57.677184,39.4972752 L74.6720933,22.6201314 L82.1814718,22.6201314 C82.9719327,22.6201314 83.5647784,22.2276396 83.9600088,21.6389021 L90.283696,10.649134 C90.6789265,9.86415054 90.6789265,8.88292125 89.8884656,8.29418367 L86.3313915,4.76175821 C85.7385459,4.17302064 84.7504697,3.97677478 83.9600088,4.3692665 L72.8935563,10.649134 C72.3007106,11.0416257 71.9054802,11.6303633 71.9054802,12.4153467 L71.9054802,19.8726893 L54.7129557,36.946079 L38.1132769,20.4614269 C38.5085073,14.9665429 36.5323551,9.47165882 32.5800506,5.54674165 C28.2325157,1.22933276 22.3040589,-0.733125828 16.3756022,0.248103465 C14.7946804,0.0518576062 14.0042195,2.01431619 15.1899109,3.19179134 L23.0945198,11.0416257 L20.7231371,20.265181 L11.4352216,22.6201314 Z M75.6601694,13.5928219 L84.3552393,8.68667539 L85.7385459,10.0603964 L80.7981653,18.6952142 L75.6601694,18.6952142 L75.6601694,13.5928219 Z M22.6992894,83.6525934 C19.735061,86.5962813 14.5970652,86.5962813 11.6328368,83.6525934 L10.2495303,82.2788724 C8.47099324,80.7089055 6.09961056,75.6065132 10.2495303,71.2891043 L32.5800506,49.1133223 L45.0298097,61.4768114 L22.6992894,83.6525934 Z M24.2802112,22.4238855 L27.2444395,11.0416257 C27.4420548,10.4528881 27.2444395,9.66790468 26.6515939,9.0791671 L21.3159828,3.78052892 C24.4778264,4.17302064 27.2444395,5.74298751 29.6158222,7.90169195 C32.975281,11.2378715 34.5562028,15.9477722 33.9633572,20.6576728 C33.9633572,21.2464103 34.1609724,21.8351479 34.5562028,22.2276396 L72.1030954,59.5143528 C72.4983258,59.9068445 73.0911715,60.1030904 73.6840172,60.1030904 C78.4267826,59.5143528 82.9719327,61.0843196 86.3313915,64.4204992 C88.505159,66.5792037 90.0860808,69.5228916 90.4813112,72.6628253 L85.1457002,67.3641871 C84.5528545,66.7754495 83.9600088,66.5792037 83.1695479,66.7754495 L71.7078649,69.9153833 C71.1150193,70.1116291 70.5221736,70.7003667 70.3245584,71.2891043 L67.36033,82.6713641 C67.1627148,83.2601017 67.36033,84.0450851 67.9531757,84.6338227 L73.2887867,89.9324609 C70.1269432,89.5399692 67.36033,87.9700023 64.9889473,85.8112978 C61.6294885,82.4751182 60.0485667,77.7652176 60.6414124,73.055317 C60.6414124,72.4665795 60.4437972,71.8778419 60.0485667,71.4853502 L33.9633572,44.9921592 C33.9633572,44.9921592 33.9633572,44.9921592 33.9633572,44.9921592 C33.9633572,44.9921592 33.9633572,44.9921592 33.9633572,44.9921592 L22.8969046,34.0023912 C22.5016742,33.6098994 22.1064437,33.4136536 21.513598,33.4136536 C21.513598,33.4136536 21.3159828,33.4136536 21.3159828,33.4136536 C16.5732174,34.0023912 12.0280673,32.4324243 8.66860847,29.0962447 C6.494841,26.9375402 4.91391921,23.9938524 4.51868876,20.8539186 L9.85429981,26.1525568 C10.4471455,26.7412944 11.0399912,26.9375402 11.8304521,26.7412944 L23.2921351,23.6013606 C23.4897503,23.6013606 24.0825959,23.0126231 24.2802112,22.4238855 Z" id="Shape"></path>
                    </g>
                </g>
            </g>
        </g>
    </g>
</svg>