<svg width="90px" height="90px" viewBox="0 0 90 90" version="1.1" xmlns="http://www.w3.org/2000/svg" xmlns:xlink="http://www.w3.org/1999/xlink">
    <g id="Page-1" stroke="none" stroke-width="1" fill="none" fill-rule="evenodd">
        <g id="Saten_Home" transform="translate(-509.000000, -1741.000000)">
            <g id="Preimushchestva" transform="translate(130.000000, 1654.000000)">
                <g id="Icon-Price" transform="translate(379.000000, 86.637820)">
                    <polygon id="Path-5" fill="#17B3ED" points="2.7967807 54.7080048 35.67829 87.3887064 75.2017839 47.9710568 75.2017839 27.8705088 63.3739172 16.1138644 42.0957262 16.1138644"></polygon>
                    <path d="M53.034347,8.0938 C52.5546753,8.68792109 52.4284526,9.49283475 52.7032371,10.205266 C52.9780217,10.9176973 53.6120553,11.4293803 54.3664472,11.5475234 C55.120839,11.6656665 55.8809466,11.3723159 56.360377,10.778 C59.390477,7.0163 64.009347,4.6219 69.226857,4.6218 C78.376251,4.6218 85.740261,11.986 85.740311,21.1353 C85.740311,30.2847 78.376351,37.6487 69.226857,37.6487 C64.376037,37.6487 60.025977,35.5671 57.002237,32.2513 C56.4872136,31.6847004 55.7084344,31.4369064 54.9606896,31.6017152 C54.2129448,31.7665239 53.6104965,32.3187511 53.3813886,33.0493631 C53.1522807,33.779975 53.3315229,34.5773275 53.851267,35.1396 C55.334157,36.7658 57.108987,38.1361 59.044537,39.2242 C56.820587,40.8499 53.705437,40.683 51.692257,38.6699 C49.464697,36.4422 49.464747,32.874 51.692257,30.6466 C53.919807,28.419 57.488047,28.419 59.715577,30.6466 C60.298287,31.2292 60.695087,31.9152 60.970137,32.6305 C61.2445006,33.3471121 61.8810975,33.8623235 62.6391598,33.981276 C63.3972222,34.1002284 64.1610276,33.804763 64.6416966,33.206628 C65.1223656,32.6084929 65.2465214,31.7989969 64.967207,31.0843 C64.483507,29.8261 63.729267,28.6501 62.720677,27.6414 C60.792917,25.7137 58.232117,24.7531 55.689337,24.7531 C53.146547,24.7531 50.614917,25.7139 48.687167,27.6414 C44.831637,31.4969 44.831717,37.8193 48.687167,41.675 C52.542727,45.5306 58.865167,45.5305 62.720677,41.675 C62.924677,41.471 63.120917,41.2517 63.304197,41.0331 C65.190067,41.5923 67.166017,41.9084 69.226857,41.9084 C70.422377,41.9084 71.616227,41.8114 72.757127,41.6166 L72.728027,47.6561 L35.178887,85.1759 L5.157087,55.1833 L42.735397,17.605 L61.903837,17.605 L72.757197,28.4584 L72.757197,32.4262 C72.7427954,33.1966053 73.1455599,33.914733 73.8104537,34.3041531 C74.4753475,34.6935732 75.2987105,34.6935732 75.9636043,34.3041531 C76.6284981,33.914733 77.0312626,33.1966053 77.016861,32.4262 L77.016861,27.5832 C77.02275,27.0160688 76.8022329,26.4700039 76.404171,26.066 L64.296247,13.9872 C63.9041755,13.5856022 63.3694549,13.3549618 62.808287,13.3454 L41.830947,13.3454 C41.2697791,13.3549618 40.7350585,13.5856022 40.342987,13.9872 L0.6348474,53.6662 C0.22869673,54.0665373 2.85672996e-05,54.6130121 2.85672996e-05,55.1833 C2.85672996e-05,55.7535879 0.22869673,56.3000627 0.6348474,56.7004 L33.661747,89.7273 C34.0620873,90.1334755 34.6085793,90.3621594 35.178887,90.3621594 C35.7491947,90.3621594 36.2956867,90.1334755 36.696027,89.7273 L76.374991,50.0192 C76.7659161,49.6223845 76.9858567,49.0882294 76.987681,48.5312 L77.016781,40.3913 C84.624091,37.3037 89.999961,29.8356 89.999971,21.1353 C89.999891,9.6837 80.678551,0.3622 69.226857,0.3622 C62.696547,0.3623 56.841557,3.3673 53.034347,8.0938 Z" id="Shape" fill="#FFFFFF" fill-rule="nonzero"></path>
                    <path d="M35.1194812,52.5756212 C34.1135444,52.5756212 33.1704684,52.2697481 32.5065846,51.7378249 C31.4177006,50.866494 31.4177006,49.711631 32.5054703,48.8411923 C33.9035542,47.7235841 36.3368396,47.7235841 37.733492,48.8411923 C38.7194992,49.6302001 40.1584332,49.4705006 40.947441,48.4844934 C41.7364488,47.4984862 41.5767492,46.0595523 40.590742,45.2705445 C39.6575691,44.5238149 38.5633537,44.0043086 37.4060399,43.7120054 L37.4060399,41.1428275 C37.4060399,38.0940825 32.8329224,38.0940825 32.8329224,41.1428275 L32.8329224,43.7123714 C31.6761984,44.0046576 30.5823456,44.5238175 29.6491123,45.2698311 C26.2726273,47.9717106 26.2726273,52.6064144 29.6482203,55.3075805 C31.1546115,56.5145462 33.109971,57.1487388 35.1194812,57.1487388 C36.1254179,57.1487388 37.068494,57.4546119 37.7323777,57.9865351 C38.8212617,58.857866 38.8212617,60.012729 37.733492,60.8831677 C36.3354081,62.0007759 33.9021228,62.0007759 32.5054703,60.8831677 C31.5194631,60.0941599 30.0805291,60.2538594 29.2915213,61.2398666 C28.5025135,62.2258738 28.6622131,63.6648077 29.6482203,64.4538155 C30.5813932,65.2005451 31.6756087,65.7200514 32.8329224,66.0123546 L32.8329224,68.5815325 C32.8329224,71.6302775 37.4060399,71.6302775 37.4060399,68.5815325 L37.4060399,66.0119886 C38.562764,65.7197024 39.6566167,65.2005425 40.5898501,64.4545289 C43.9663351,61.7526494 43.9663351,57.1179456 40.590742,54.4167795 C39.0843508,53.2098138 37.1289914,52.5756212 35.1194812,52.5756212 Z" id="Shape" fill="#FFFFFF" fill-rule="nonzero"></path>
                </g>
            </g>
        </g>
    </g>
</svg>