<svg width="20px" height="17px" viewBox="0 0 20 17" version="1.1" xmlns="http://www.w3.org/2000/svg" xmlns:xlink="http://www.w3.org/1999/xlink">
    <g id="Page-1" stroke="none" stroke-width="1" fill="none" fill-rule="evenodd">
        <g id="Saten_Warranty-and-service" transform="translate(-344.000000, -2620.000000)" fill-rule="nonzero" fill="#17B3ED">
            <g id="Group-7" transform="translate(325.000000, 2547.000000)">
                <path d="M20.8669773,81.0090235 C20.8669773,76.5613975 24.9554587,73.018047 29.9334887,73.018047 C34.9115187,73.018047 39,76.5613975 39,81.0090235 C39,85.4566495 34.9115187,89 29.9334887,89 C28.9468792,89 27.6732329,88.7370887 26.0861351,88.2196674 L19.5420831,89.2391999 L21.3868435,83.6043071 C21.0427744,82.5414643 20.8669773,81.685186 20.8669773,81.0090235 Z M26.2575361,86.1688373 L26.4885228,86.246247 C27.9975958,86.751977 29.1560667,87 29.9334887,87 C33.8654811,87 37,84.2834169 37,81.0090235 C37,77.7346301 33.8654811,75.018047 29.9334887,75.018047 C26.0014963,75.018047 22.8669773,77.7346301 22.8669773,81.0090235 C22.8669773,81.4875453 23.0367212,82.2556873 23.3861895,83.2783704 L23.4943639,83.594932 L22.4579169,86.7608001 L26.2575361,86.1688373 Z" id="Oval"></path>
            </g>
        </g>
    </g>
</svg>