<svg width="19px" height="19px" viewBox="0 0 19 19" version="1.1" xmlns="http://www.w3.org/2000/svg" xmlns:xlink="http://www.w3.org/1999/xlink">
    <g id="Page-1" stroke="none" stroke-width="1" fill="none" fill-rule="evenodd">
        <g id="Saten_Registration" transform="translate(-930.000000, -332.000000)" fill-rule="nonzero" fill="#17B3ED">
            <g id="noun_1344657_cc" transform="translate(930.000000, 332.000000)">
                <g id="Group">
                    <path d="M11.6078532,11.5936842 C10.9383795,11.3115789 9.80469528,10.7463158 8.89627423,9.83894737 C7.98785318,8.93157895 7.42259002,7.79684211 7.14153739,7.12736842 L8.0183795,6.25052632 L3.84995844,0 L1.08153739,2.76842105 C-1.21425208,5.06526316 0.257326864,10.1315789 4.43101107,14.3052632 C7.17627423,17.0505263 10.4689058,18.7557895 13.0246953,18.7557895 C14.2310111,18.7557895 15.2478532,18.3757895 15.9699584,17.6547368 L18.7362742,14.8863158 L12.4846953,10.7178947 L11.6078532,11.5936842 Z M15.4331163,15.2126316 L14.4804848,16.1663158 C14.1594321,16.4873684 13.6699584,16.6494737 13.0257479,16.6494737 C11.0383795,16.6494737 8.24995844,15.1442105 5.92048476,12.8157895 C2.41206371,9.30736842 1.33943213,5.48842105 2.56995844,4.25789474 L3.52469528,3.30315789 L5.31101107,5.98315789 L4.73206371,6.56421053 L4.91311634,7.16631579 C4.94259002,7.26315789 5.65206371,9.57052632 7.40995844,11.3273684 C9.16785318,13.0842105 11.474169,13.7947368 11.5720637,13.8231579 L12.1752216,14.0052632 L12.754169,13.4263158 L15.4331163,15.2126316 Z" id="Shape"></path>
                </g>
            </g>
        </g>
    </g>
</svg>