<svg width="39px" height="28px" viewBox="0 0 39 28" version="1.1" xmlns="http://www.w3.org/2000/svg" xmlns:xlink="http://www.w3.org/1999/xlink">
    <g id="Page-1" stroke="none" stroke-width="1" fill="none" fill-rule="evenodd">
        <g id="Saten_Registration" transform="translate(-129.000000, -254.000000)" fill-rule="nonzero" fill="#000000">
            <g id="Group-2" transform="translate(129.000000, 254.000000)">
                <path d="M11.3882246,15.1382029 C8.07542761,14.2588643 5.64123911,11.2652779 5.64123911,7.7 C5.64123911,3.44235294 9.11265574,0 13.40625,0 C17.6998443,0 21.1712609,3.44235294 21.1712609,7.7 C21.1712609,11.2498123 18.7581449,14.232882 15.4673369,15.1266404 C22.0255198,15.8198167 25.8072408,20.1109366 26.8125,28 L0,28 C1.00745738,20.1536119 4.80353226,15.8663462 11.3882246,15.1382029 Z M13.4541295,18.2608696 C9.24271805,18.2639306 6.28299766,20.3565767 4.57496827,24.538808 L22.2287445,24.538808 C20.5904126,20.3504547 17.6655409,18.2578085 13.4541295,18.2608696 Z M13.40625,3.52408901 C11.0709659,3.52408901 9.19508191,5.38426754 9.19508191,7.7 C9.19508191,10.0157325 11.0709659,11.875911 13.40625,11.875911 C15.7415341,11.875911 17.6174181,10.0157325 17.6174181,7.7 C17.6174181,5.38426754 15.7415341,3.52408901 13.40625,3.52408901 Z M31.1500807,12.2457885 L31.1500807,7.30434783 L34.0530443,7.30434783 L34.0530443,12.2457885 L39,12.2457885 L39,15.1455158 L34.0530443,15.1455158 L34.0530443,20.0869565 L31.1500807,20.0869565 L31.1500807,15.1455158 L26.203125,15.1455158 L26.203125,12.2457885 L31.1500807,12.2457885 Z" id="Combined-Shape"></path>
            </g>
        </g>
    </g>
</svg>