<?xml version="1.0" encoding="UTF-8"?>
<svg width="19px" height="20px" viewBox="0 0 19 20" version="1.1" xmlns="http://www.w3.org/2000/svg" xmlns:xlink="http://www.w3.org/1999/xlink">
    <!-- Generator: Sketch 47 (45396) - http://www.bohemiancoding.com/sketch -->
    <title>Combined Shape</title>
    <desc>Created with Sketch.</desc>
    <defs></defs>
    <g id="Page-1" stroke="none" stroke-width="1" fill="none" fill-rule="evenodd">
        <g id="Saten_Warranty-and-service" transform="translate(-345.000000, -2553.000000)" fill-rule="nonzero" fill="#17B3ED">
            <g id="Group-7" transform="translate(325.000000, 2547.000000)">
                <path d="M28.0452104,16.8063132 C25.7103253,16.1698444 23.9975214,14.0376629 23.9975214,11.5 C23.9975214,8.45882353 26.457453,6 29.5,6 C32.542547,6 35.0024786,8.45882353 35.0024786,11.5 C35.0024786,14.0376629 33.2896747,16.1698444 30.9547896,16.8063132 C35.7303117,17.3059016 38.4120485,20.3704639 39,26 L20,26 C20.5879515,20.3704639 23.2696883,17.3059016 28.0452104,16.8063132 Z M29.5339286,18.7333333 C25.84717,18.7333333 23.6053094,20.4888889 22.8083468,24 L36.088303,24 C35.4054787,20.4888889 33.2206872,18.7333333 29.5339286,18.7333333 Z M29.5,7.94117647 C27.5255812,7.94117647 25.9395727,9.52647059 25.9395727,11.5 C25.9395727,13.4735294 27.5255812,15.0588235 29.5,15.0588235 C31.4744188,15.0588235 33.0604273,13.4735294 33.0604273,11.5 C33.0604273,9.52647059 31.4744188,7.94117647 29.5,7.94117647 Z" id="Combined-Shape"></path>
            </g>
        </g>
    </g>
</svg>