<?xml version="1.0" encoding="utf-8"?>
<!-- Generator: Adobe Illustrator 19.0.0, SVG Export Plug-In . SVG Version: 6.00 Build 0)  -->
<svg version="1.1" xmlns="http://www.w3.org/2000/svg" xmlns:xlink="http://www.w3.org/1999/xlink" x="0px" y="0px"
	 viewBox="0 0 170.1 170.1" style="enable-background:new 0 0 170.1 170.1;" xml:space="preserve">
<style type="text/css">
	.st0{fill-rule:evenodd;clip-rule:evenodd;}
	.st1{visibility:hidden;}
</style>
<g id="5" class="st1">
	<g id="XMLID_7_">
		<path id="XMLID_120_" class="st0" d="M117.3,52.4V63c0,0.8-0.1,1.6-0.4,2.4c-1.3,3.5-5.2,5.2-8.7,3.9l-15.2-5.8
			c-5.3-2-11.2,0.6-13.2,5.9c-2,5.3,0.6,11.2,5.9,13.2l0,0l0,0l15.2,5.8c1.7,0.6,3,1.9,3.7,3.5c0.7,1.6,0.8,3.5,0.1,5.1
			c-1.3,3.5-5.2,5.2-8.7,3.9L81,95.2c-5.3-2-11.2,0.6-13.2,5.9c-2,5.3,0.6,11.2,5.9,13.2l7.7,2.9H52.5V52.4H117.3z"/>
		<path id="XMLID_129_" class="st0" d="M110.6,73.3c2.5,0,4.9-0.9,6.7-2.5v46.5h-25c-0.7,0-1.5-0.2-2.2-0.4L75,111
			c-1.7-0.6-3-1.9-3.7-3.5c-0.7-1.6-0.8-3.5-0.1-5.1c1.3-3.5,5.2-5.2,8.7-3.9l15.2,5.8c1.2,0.5,2.4,0.7,3.6,0.7c4.1,0,8-2.5,9.6-6.6
			c2-5.3-0.6-11.2-5.9-13.2L87,79.3c-1.7-0.6-3-1.9-3.7-3.5c-0.7-1.6-0.8-3.5-0.1-5.1c1.3-3.5,5.2-5.2,8.7-3.9l0,0l0,0l15.2,5.8
			C108.2,73,109.4,73.3,110.6,73.3z"/>
	</g>

	<animate xlink:href="#5" id="a5" attributeType="CSS" attributeName="visibility" from="visible" to="hidden" dur="0.7s" begin="a4.end - 0.35s" repeatCount="1" fill="freeze" />
</g>
<g id="4" class="st1">
	<path id="XMLID_15_" class="st0" d="M52.5,52.4v64.8h64.8V52.4H52.5z M80.9,60.5l14.5,5.5L84.2,95.6l-14.5-5.5L80.9,60.5z
		 M98.4,109.9l-14.5-5.5l11.3-29.5l14.5,5.5L98.4,109.9z"/>

	<animate xlink:href="#4" id="a4" attributeType="CSS" attributeName="visibility" from="visible" to="hidden" dur="0.7s" begin="a3.end - 0.35s" repeatCount="1" fill="freeze" />
</g>
<g id="3" class="st1">
	<path id="XMLID_18_" class="st0" d="M99.8,73.1c0,1.2-1,2.2-2.2,2.2c-1.2,0-2.2-1-2.2-2.2c0-1.2,1-2.2,2.2-2.2
		C98.8,70.9,99.8,71.9,99.8,73.1z"/>
	<path id="XMLID_21_" class="st0" d="M52.5,52.4v64.8h64.8V52.4H52.5z M102.3,92.1c-7.6,12.4-19,19.2-25.6,15.2
		c-6.5-4-5.7-17.3,1.9-29.7c7.6-12.4,19-19.2,25.6-15.2C110.7,66.3,109.9,79.7,102.3,92.1z"/>
	<path id="XMLID_9_" class="st0" d="M99.8,73.1c0,1.2-1,2.2-2.2,2.2c-1.2,0-2.2-1-2.2-2.2c0-1.2,1-2.2,2.2-2.2
		C98.8,70.9,99.8,71.9,99.8,73.1z"/>

	<animate xlink:href="#3" id="a3" attributeType="CSS" attributeName="visibility" from="visible" to="hidden" dur="0.7s" begin="a2.end - 0.35s" repeatCount="1" fill="freeze" />
</g>
<g id="2" class="st1">
	<path id="XMLID_27_" class="st0" d="M52.5,52.4v64.8h64.8V52.4H52.5z M79.1,71.2l-6.9,18l-5.6-12.5L79.1,71.2z M79.5,105.8
		l-5.8-13.1l8.8-22.9l13.1-5.9l12.9,28.9L79.5,105.8z"/>

	<animate xlink:href="#2" id="a2" attributeType="CSS" attributeName="visibility" from="visible" to="hidden" dur="0.7s" begin="a1.end - 0.35s" repeatCount="1" fill="freeze" />
</g>
<g id="1" class="st1">
	<rect id="XMLID_2_" x="52.5" y="52.4" class="st0" width="64.8" height="64.8"/>

	<animate xlink:href="#1" id="a1" attributeType="CSS" attributeName="visibility" from="visible" to="hidden" dur="0.7s" begin="0;a5.end - 0.35s" repeatCount="1" fill="freeze" />
</g>
</svg>
