<svg width="129" height="68" viewBox="0 0 129 68" version="1.1" xmlns="http://www.w3.org/2000/svg" xmlns:xlink="http://www.w3.org/1999/xlink">
<title>Group</title>
<desc>Created using Figma</desc>
<g id="Canvas" transform="translate(20706 -9870)">
<g id="Group">
<g id="XMLID 1">
<g id="XMLID 3">
<use xlink:href="#path0_fill" transform="translate(-20706 9870.99)"/>
</g>
<g id="XMLID 2">
<use xlink:href="#path1_fill" transform="translate(-20687.3 9870)"/>
</g>
</g>
</g>
</g>
<defs>
<path id="path0_fill" fill-rule="evenodd" d="M 67.0145 0L 67.0145 10.9572C 67.0145 11.8047 66.8632 12.622 66.5605 13.4392C 65.1984 17.0109 61.1727 18.827 57.601 17.4649L 41.9219 11.4718C 36.4736 9.38324 30.3593 12.1074 28.2708 17.5557C 26.1823 23.0041 28.9367 29.1183 34.385 31.2069L 34.385 31.2371L 50.0641 37.2C 51.7895 37.8659 53.1818 39.1675 53.9385 40.8625C 54.6952 42.5576 54.7558 44.4342 54.0899 46.1595C 52.7278 49.7312 48.7021 51.5473 45.1304 50.1852L 29.4513 44.2223C 24.0029 42.1641 17.8887 44.8882 15.8002 50.3366C 13.7116 55.7849 16.4661 61.8991 21.9144 63.9877L 29.875 67.0145L 0 67.0145L 0 0L 67.0145 0Z"/>
<path id="path1_fill" fill-rule="evenodd" d="M 41.3535 22.5367C 43.9264 22.5367 47.8221 21.6812 49.7932 17.7391C 51.7642 13.7971 51.2435 10.8168 51.2714 6.89855C 51.2961 3.42801 51.2714 0.985508 51.2714 0.985508L 109.416 0L 109.416 68L 22.466 68C 21.7093 67.9697 20.9223 67.8486 20.1656 67.546L 4.48648 61.5528C 2.76118 60.8869 1.36882 59.5853 0.612111 57.8903C -0.144602 56.1953 -0.205139 54.3186 0.460768 52.563C 1.82285 48.9914 5.84857 47.1753 9.42025 48.5373L 25.0993 54.5002C 26.3404 54.9845 27.6116 55.1964 28.8526 55.1964C 33.1205 55.1964 37.1462 52.5933 38.7505 48.386C 40.839 42.9377 38.0845 36.8234 32.6362 34.7349L 16.9571 28.7417C 15.2318 28.0758 13.8395 26.7743 13.0827 25.0792C 12.326 23.3842 12.2655 21.5075 12.9314 19.752C 14.2935 16.1803 18.3192 14.3642 21.8909 15.7262L 21.8909 15.7565L 37.6003 21.8405C 38.8413 22.2945 40.1125 22.5367 41.3535 22.5367Z"/>
</defs>
</svg>
