<?xml version="1.0" encoding="UTF-8"?>
<svg width="105px" height="99px" viewBox="0 0 105 99" version="1.1" xmlns="http://www.w3.org/2000/svg" xmlns:xlink="http://www.w3.org/1999/xlink">
    <!-- Generator: Sketch 47 (45396) - http://www.bohemiancoding.com/sketch -->
    <title>Pin</title>
    <desc>Created with Sketch.</desc>
    <defs>
        <filter x="-46.6%" y="-54.2%" width="193.2%" height="208.4%" filterUnits="objectBoundingBox" id="filter-1">
            <feGaussianBlur stdDeviation="9.21595982" in="SourceGraphic"></feGaussianBlur>
        </filter>
    </defs>
    <g id="Page-1" stroke="none" stroke-width="1" fill="none" fill-rule="evenodd">
        <g id="Saten_Contacts" transform="translate(-832.000000, -1020.000000)">
            <g id="Map" transform="translate(407.000000, 874.000000)">
                <g id="Pin" transform="translate(448.000000, 146.000000)">
                    <polygon id="Path-12" fill="#949494" opacity="0.624320652" filter="url(#filter-1)" points="34.6425449 81.0019891 24.3565458 70.3745486 -4.54747351e-13 70.3745486 -4.54747351e-13 30 59.3086276 30 59.3086276 69.2863145 38.0678856 69.2863145"></polygon>
                    <polygon id="Rectangle-45" fill="#000000" points="3 0 63 0 63 60 42.0704053 60 33 79.5367439 24.2978193 60 3 60"></polygon>
                    <path d="M47.8614719,35.1108225 C47.8614719,32.8631922 47.180382,30.9731678 45.8181818,29.4406926 C44.4559816,27.9082174 42.3275758,26.5800922 39.4329004,25.4562771 L34.6822511,23.617316 C33.3200509,23.106491 32.0770619,22.5701327 30.9532468,22.0082251 C29.8294316,21.4463175 28.961042,20.9269865 28.3480519,20.4502165 C27.8031719,20.0075014 27.3689771,19.4456023 27.0454545,18.7645022 C26.721932,18.0834021 26.5601732,17.3682577 26.5601732,16.6190476 C26.5601732,15.1206274 27.0624769,13.9202065 28.0670996,13.0177489 C29.0717222,12.1152913 30.3913338,11.6640693 32.025974,11.6640693 C34.5800994,11.6640693 36.9298594,12.7623267 39.0753247,14.9588745 C41.2207899,17.1554222 42.9405419,20.211813 44.234632,24.1281385 L44.7454545,24.1281385 L44.1835498,11.408658 L43.6727273,11.408658 C43.5705623,11.8513731 43.4343443,12.1493499 43.2640693,12.3025974 C43.0937942,12.4558449 42.8213583,12.5324675 42.4467532,12.5324675 C41.9018732,12.5324675 41.1356471,12.4132768 40.1480519,12.1748918 L38.5134199,11.817316 C37.2193297,11.544876 36.0955315,11.340549 35.1419913,11.204329 C34.1884512,11.068109 33.2689799,11 32.3835498,11 C30.4764695,11 28.7141495,11.2894632 27.0965368,11.8683983 C25.4789241,12.4473333 24.0826899,13.2305867 22.9077922,14.2181818 C21.7328946,15.2057769 20.8049096,16.3891706 20.1238095,17.7683983 C19.4427094,19.1476259 19.1021645,20.6204828 19.1021645,22.187013 C19.1021645,24.2303132 19.8343361,26.0011469 21.2987013,27.4995671 C22.7630665,28.9979873 25.1128265,30.3771943 28.3480519,31.6372294 L33.3541126,33.578355 C35.9082379,34.5659501 37.7556942,35.6046122 38.8965368,36.6943723 C40.0373794,37.7841324 40.6077922,39.0611759 40.6077922,40.5255411 C40.6077922,42.0920713 40.0799476,43.3520876 39.0242424,44.3056277 C37.9685373,45.2591678 36.5723031,45.7359307 34.8354978,45.7359307 C33.4051877,45.7359307 32.1111169,45.4975493 30.9532468,45.0207792 C29.7953766,44.5440092 28.6715783,43.7948103 27.5818182,42.7731602 C25.947178,41.172575 24.4828348,39.4017413 23.1887446,37.4606061 C22.6438645,36.643286 22.1926425,35.9366552 21.8350649,35.3406926 C21.4774874,34.7447301 21.1624833,34.1828309 20.8900433,33.6549784 C20.6176033,33.1271258 20.3792218,32.5737403 20.1748918,31.9948052 C19.9705617,31.4158701 19.7492075,30.7347803 19.5108225,29.9515152 L19,29.9515152 L19.5108225,45.7359307 L20.021645,45.7359307 C20.12381,45.2591607 20.3025961,44.935643 20.5580087,44.765368 C20.8134212,44.5950929 21.1965342,44.5099567 21.7073593,44.5099567 C21.9797993,44.5099567 22.2692625,44.5354976 22.5757576,44.5865801 C22.8822526,44.6376626 23.4271245,44.7483397 24.2103896,44.9186147 C26.3558549,45.3953848 28.3991245,45.7614706 30.3402597,46.0168831 C32.281395,46.2722956 33.8989834,46.4 35.1930736,46.4 C36.9979888,46.4 38.6751726,46.1105368 40.2246753,45.5316017 C41.774178,44.9526667 43.1108169,44.1608997 44.234632,43.1562771 C45.3584472,42.1516544 46.243864,40.9597472 46.8909091,39.5805195 C47.5379542,38.2012918 47.8614719,36.7114077 47.8614719,35.1108225 Z" id="SATEN-Copy" fill="#FFFFFF"></path>
                </g>
            </g>
        </g>
    </g>
</svg>