<?xml version="1.0" encoding="UTF-8"?>
<svg width="61px" height="46px" viewBox="0 0 61 46" version="1.1" xmlns="http://www.w3.org/2000/svg" xmlns:xlink="http://www.w3.org/1999/xlink">
    <!-- Generator: Sketch 48.2 (47327) - http://www.bohemiancoding.com/sketch -->
    <title>Group 17</title>
    <desc>Created with Sketch.</desc>
    <defs></defs>
    <g id="Page-1" stroke="none" stroke-width="1" fill="none" fill-rule="evenodd">
        <g id="Group-17">
            <g id="noun_1344657_cc" fill="#17B3ED" fill-rule="nonzero">
                <g id="Group">
                    <path d="M28.41899,28.3843008 C26.7799474,27.693635 24.0043989,26.3097264 21.7803521,24.0882567 C19.5563052,21.866787 18.1723966,19.0886613 17.484308,17.4496187 L19.6310415,15.3028852 L9.42568182,0 L2.64787983,6.77780199 C-2.97279931,12.4010582 0.630001902,24.8046936 10.8482471,35.0229388 C17.5693526,41.7440443 25.6305559,45.9189642 31.8877815,45.9189642 C34.8411507,45.9189642 37.33064,44.9886271 39.0985381,43.223306 L45.8711859,36.4455041 L30.5657235,26.2401444 L28.41899,28.3843008 Z M37.7842115,37.2444085 L35.451926,39.5792711 C34.6659072,40.3652899 33.4675505,40.762165 31.8903586,40.762165 C27.024773,40.762165 20.1980059,37.0768963 14.4948592,31.3763267 C5.90534816,22.7868156 3.27927203,13.4370569 6.29191482,10.4244141 L8.62935451,8.08697438 L13.0027119,14.648299 L11.5853009,16.0708643 L12.0285639,17.5449718 C12.1007231,17.782066 13.8376959,23.4310934 18.1414713,27.7322917 C22.4452467,32.03349 28.0916969,33.7730399 28.3313683,33.8426219 L29.8080529,34.2884621 L31.2254639,32.8710511 L37.7842115,37.2444085 Z" id="Shape"></path>
                </g>
            </g>
            <g id="Group-16" transform="translate(35.000000, 6.000000)">
                <path d="M13,24.695122 C5.99541293,24.695122 0.317073171,19.2351799 0.317073171,12.5 C0.317073171,5.76482012 5.99541293,0.304878049 13,0.304878049 C20.0045871,0.304878049 25.6829268,5.76482012 25.6829268,12.5 C25.6829268,19.2351799 20.0045871,24.695122 13,24.695122 Z" id="Oval-2" fill="#17B3ED" fill-rule="nonzero"></path>
                <path d="M13,20.4268293 C17.5529816,20.4268293 21.2439024,16.8778669 21.2439024,12.5 C21.2439024,8.12213308 17.5529816,4.57317073 13,4.57317073 C8.4470184,4.57317073 4.75609756,8.12213308 4.75609756,12.5 C4.75609756,16.8778669 8.4470184,20.4268293 13,20.4268293 Z" id="Path" fill="#2B3135"></path>
                <polygon id="Path" fill="#FFFFFF" points="12.0154044 17.0517857 7.6097561 12.7112659 9.86264442 10.4916819 12.0154044 12.6126177 16.7715019 7.92682927 19.0243902 10.1464133"></polygon>
            </g>
        </g>
    </g>
</svg>