<?xml version="1.0" encoding="UTF-8"?>
<svg width="54px" height="46px" viewBox="0 0 54 46" version="1.1" xmlns="http://www.w3.org/2000/svg" xmlns:xlink="http://www.w3.org/1999/xlink">
    <!-- Generator: Sketch 47 (45396) - http://www.bohemiancoding.com/sketch -->
    <title>Group 6</title>
    <desc>Created with Sketch.</desc>
    <defs></defs>
    <g id="Page-1" stroke="none" stroke-width="1" fill="none" fill-rule="evenodd">
        <g id="Saten_Warranty-and-service" transform="translate(-137.000000, -1069.000000)" fill-rule="nonzero" fill="#000000">
            <g id="Group-6" transform="translate(137.000000, 1069.000000)">
                <g id="noun_970513_cc">
                    <path d="M47.2582036,23.5609756 C47.4148807,23.5609756 47.763364,23.5609756 48.3036535,23.5609756 C51.4032107,23.5609756 53.9158984,26.072549 53.9158984,29.1707317 C53.9158984,32.2689145 51.4032107,34.7804878 48.3036535,34.7804878 C47.3910049,34.7804878 47.0165176,34.7804878 47.1801914,34.7804878 L47.1801914,31.4146341 L25.3544627,31.4146341 L28.3165274,28.4525695 L25.9365095,26.0725515 L18.7932879,33.2157731 L18.8238744,33.2463596 L18.7932879,33.276946 L25.9365095,40.4201676 L28.3165274,38.0401496 L25.0568656,34.7804878 L47.2582055,34.7804878 L47.2582055,45.9185094 L0.298778916,45.9185094 L0.298778916,0.486206905 L18.2586462,0.486206905 C18.0487919,11.0621107 18.0487919,16.3500627 18.2586462,16.3500627 C18.3080354,16.3500627 20.5257655,14.4779447 24.9118367,10.7337089 L31.4592664,16.3500627 L31.4592664,0.486206905 L47.2582055,0.486206905 L47.2582055,23.5609756 Z M48.3036535,31.4146341 C49.5434764,31.4146341 50.5485514,30.4100048 50.5485514,29.1707317 C50.5485514,27.9314586 49.5434764,26.9268293 48.3036535,26.9268293 C48.0392451,26.9268293 47.6574452,26.9268293 47.1582535,26.9268293 L47.1582535,31.4146341 C47.458789,31.4146341 47.840589,31.4146341 48.3036535,31.4146341 Z" id="Combined-Shape"></path>
                </g>
            </g>
        </g>
    </g>
</svg>