<?xml version="1.0" encoding="UTF-8"?>
<svg width="60px" height="63px" viewBox="0 0 60 63" version="1.1" xmlns="http://www.w3.org/2000/svg" xmlns:xlink="http://www.w3.org/1999/xlink">
    <!-- Generator: Sketch 47 (45396) - http://www.bohemiancoding.com/sketch -->
    <title>noun_900032_cc</title>
    <desc>Created with Sketch.</desc>
    <defs></defs>
    <g id="Page-1" stroke="none" stroke-width="1" fill="none" fill-rule="evenodd">
        <g id="Saten_Warranty-and-service" transform="translate(-133.000000, -375.000000)" fill-rule="nonzero" fill="#000000">
            <g id="noun_900032_cc" transform="translate(133.000000, 375.000000)">
                <path d="M59.2570813,21.0429009 L58.2187964,15.8947906 L52.7678005,16.0878447 C50.6263379,16.0878447 39.9190246,15.7017365 35.1169568,8.04392237 L29.9255322,0 L24.6692148,8.10827375 C19.9969326,15.7017365 9.22472653,16.0234934 7.14815668,16.0234934 L1.63226802,15.8304392 L0.593983099,20.9785495 C0.529090292,22.072523 -1.02833709,31.0173647 1.17801837,41.5709908 C2.54076733,48.1348315 5.5907293,56.1144025 12.0800101,63 L12.0800101,60.1685393 L15.5193289,60.1685393 C9.54919057,53.9264556 6.75879984,46.6547497 5.52583649,40.6700715 C3.44926664,30.9530133 4.87690841,22.7803882 5.07158683,21.8794688 L5.33115807,20.3993871 L7.14815668,20.4637385 C9.67897619,20.4637385 22.5277521,20.0132789 28.4978904,10.4892748 L29.990425,8.17262513 L31.4180668,10.4249234 C37.3882051,20.0132789 50.236981,20.4637385 52.8326933,20.4637385 C52.8326933,20.4637385 52.8326933,20.4637385 52.8326933,20.4637385 L54.5847992,20.3993871 L54.8443704,21.8794688 C55.0390488,22.7803882 56.4666906,30.8243105 54.3901207,40.6700715 C53.1571574,46.5903984 50.3667667,53.8621042 44.3966283,60.1685393 L48.0306256,60.1685393 L48.0306256,62.8712972 C54.4550135,55.9856997 57.4400827,48.0061287 58.8028317,41.5066394 C61.0740799,30.8243105 59.4517597,22.0081716 59.2570813,21.0429009 Z" id="Shape"></path>
                <path d="M47.5286675,27.9253731 L47.0722455,25.6650083 L44.6379951,25.7429519 C43.1165885,25.7429519 35.2052745,25.4311774 31.7060395,19.5074627 L29.5,16 L27.2939605,19.5854063 C23.7947255,25.4311774 15.8834115,25.7429519 14.3620049,25.7429519 L11.9277545,25.6650083 L11.4713325,27.9253731 C11.3191919,28.5489221 10.3302776,34.4726368 11.7756138,41.4096186 C13.1448797,48.1907131 17.176607,57.3880597 28.4350154,62.4543947 L29.5,63 L30.5649846,62.5323383 C41.823393,57.4660033 45.8551203,48.3466003 47.2243862,41.4875622 C48.6697224,34.3167496 47.6808081,28.5489221 47.5286675,27.9253731 Z M28.1307341,48.6583748 L21.4365453,41.7993367 L24.8597101,38.291874 L28.1307341,41.6434494 L35.3574152,34.238806 L38.7805799,37.7462687 L28.1307341,48.6583748 Z" id="Shape"></path>
            </g>
        </g>
    </g>
</svg>