<?xml version="1.0" encoding="UTF-8"?>
<svg width="58px" height="38px" viewBox="0 0 58 38" version="1.1" xmlns="http://www.w3.org/2000/svg" xmlns:xlink="http://www.w3.org/1999/xlink">
    <!-- Generator: Sketch 47 (45396) - http://www.bohemiancoding.com/sketch -->
    <title>Group 6</title>
    <desc>Created with Sketch.</desc>
    <defs></defs>
    <g id="Page-1" stroke="none" stroke-width="1" fill="none" fill-rule="evenodd">
        <g id="Saten_Payment-and-delivery" transform="translate(-129.000000, -555.000000)" fill-rule="nonzero" fill="#000000">
            <g id="Group-6" transform="translate(129.000000, 555.000000)">
                <g id="noun_970513_cc">
                    <g id="Group" transform="translate(9.007576, 30.990196)">
                        <ellipse id="Oval" cx="37.4259019" cy="3.48976827" rx="3.41178932" ry="3.32539513"></ellipse>
                        <ellipse id="Oval" cx="3.5804329" cy="3.48976827" rx="3.47665224" ry="3.38861557"></ellipse>
                    </g>
                    <path d="M34.2044643,22.2394596 L34.2044643,5.94768078 L14.228125,5.78104575 L7.02991071,18.740124 L1.33348214,21.2011952 C0.517857143,21.5088291 0,22.2266416 0,23.0213625 L0,34.25 L7.44419643,34.25 C7.44419643,34.1730915 7.43125,34.1090011 7.43125,34.0320927 C7.43125,31.6094757 9.70982143,29.6483095 12.5321429,29.6483095 C15.3544643,29.6483095 17.6330357,31.6094757 17.6330357,34.0320927 C17.6330357,34.1090011 17.6200893,34.1730915 17.6200893,34.25 L41.2214286,34.25 C41.2214286,34.1730915 41.2084821,34.1090011 41.2084821,34.0320927 C41.2084821,31.6094757 43.4870536,29.6483095 46.309375,29.6483095 C49.11875,29.6483095 51.4102679,31.6094757 51.4102679,34.0320927 C51.4102679,34.1090011 51.3973214,34.1730915 51.3973214,34.25 L58,34.25 L58,22.2522777 L34.2044643,22.2522777 L34.2044643,22.2394596 Z" id="Shape"></path>
                    <path d="M36.1299973,0.700012207 L43.9442482,0.700012207 C43.8529416,5.30357803 43.8529416,7.60536095 43.9442482,7.60536095 C43.9657372,7.60536095 44.9306608,6.79045016 46.839019,5.16062858 L49.6877738,7.60536095 L49.6877738,0.700012207 L56.5618154,0.700012207 L56.5618154,20.476156 L36.1299973,20.476156 L36.1299973,0.700012207 Z" id="Rectangle-path"></path>
                </g>
            </g>
        </g>
    </g>
</svg>