<?xml version="1.0" encoding="UTF-8"?>
<svg width="68px" height="60px" viewBox="0 0 68 60" version="1.1" xmlns="http://www.w3.org/2000/svg" xmlns:xlink="http://www.w3.org/1999/xlink">
    <!-- Generator: Sketch 47 (45396) - http://www.bohemiancoding.com/sketch -->
    <title>noun_1267990_cc</title>
    <desc>Created with Sketch.</desc>
    <defs></defs>
    <g id="Page-1" stroke="none" stroke-width="1" fill="none" fill-rule="evenodd">
        <g id="Saten_Payment-and-delivery" transform="translate(-129.000000, -374.000000)" fill="#000000">
            <g id="noun_1267990_cc" transform="translate(129.000000, 374.000000)">
                <g id="Group">
                    <path d="M28.4399164,15.7718 C25.4200627,16.3784077 22.400209,17.591623 19.3803553,18.1982307 C17.5684431,18.8048384 11.5287356,16.9850153 17.8704284,15.1651923 C21.4942529,15.4684961 24.816092,15.4684961 28.4399164,15.7718 Z" id="Shape"></path>
                    <path d="M36.8955068,17.2883192 C37.8014629,16.3784077 36.5935214,16.6817115 35.0835946,16.9850153 C32.6677116,18.5015346 30.553814,20.0180538 27.5339603,21.2312692 C24.2121212,22.7477884 20.5882968,20.9279653 23.9101358,19.1081423 C25.4200627,18.1982307 27.5339603,16.9850153 29.3458725,15.7718 C33.5736677,15.7718 39.6133751,15.7718 43.539185,16.6817115 C40.5193312,19.1081423 36.5935214,22.4444846 34.7816092,24.2643076 C32.3657262,26.3874346 30.2518286,26.3874346 30.553814,24.2643076 C30.553814,22.7477884 35.3855799,18.5015346 36.8955068,17.2883192 Z" id="Shape"></path>
                    <path d="M51.9947753,34.2733345 C51.69279,31.5435999 50.4848485,29.1171692 50.7868339,26.3874346 C51.0888192,23.9610038 58.6384535,20.9279653 59.2424242,17.591623 C60.4503657,10.6156346 62.8662487,11.82885 68,9.40241921 C65.584117,6.6726846 62.8662487,2.72973461 60.4503657,0 C46.2570533,10.3123307 26.3260188,10.6156346 12.1327064,10.3123307 C11.830721,12.1321538 13.0386625,13.3453692 15.4545455,13.648673 C22.400209,14.5585846 30.2518286,14.8618884 37.1974922,14.8618884 C47.1630094,15.1651923 48.9749216,18.1982307 46.861024,23.3543961 C44.7471264,28.5105615 46.2570533,33.363423 51.9947753,34.2733345 Z" id="Shape"></path>
                    <path d="M0.677406662,40.1606788 L40.841461,25.6020942 L47.827277,45.620148 L7.6632227,59.8754288 L0.677406662,40.1606788 Z M21.5653083,37.7342481 L21.2633229,36.5210327 L22.7732497,35.914425 L23.0752351,37.1276404 C24.8871473,36.8243365 26.3970742,37.1276404 27.6050157,38.6441596 L25.1891327,40.1606788 C24.8871473,39.5540711 23.9811912,39.5540711 23.3772205,39.857375 C22.4712644,40.1606788 22.4712644,40.4639827 22.4712644,40.7672865 C22.7732497,41.6771981 25.7931034,40.7672865 26.6990596,41.0705904 C27.907001,41.0705904 29.1149425,41.9805019 29.4169279,43.1937173 C30.322884,45.3168442 28.8129572,46.8333634 27.0010449,48.0465788 L27.3030303,49.2597942 L25.7931034,49.8664019 L25.4911181,48.3498827 C23.3772205,48.9564903 21.8672936,48.3498827 20.6593521,46.5300596 L23.3772205,45.0135404 C23.6792059,45.9234519 24.585162,45.9234519 25.4911181,45.620148 C26.3970742,45.3168442 26.6990596,45.0135404 26.3970742,44.7102365 C26.0950888,43.4970211 22.7732497,45.0135404 20.9613375,44.1036288 C18.5454545,42.5871096 19.1494253,39.2507673 21.5653083,37.7342481 Z" id="Shape"></path>
                </g>
            </g>
        </g>
    </g>
</svg>